{
  "accessors": [
    {
      "bufferView": 2,
      "componentType": 5126,
      "count": 74,
      "max": [
        2.051764965057373,
        0.4977149963378906,
        2.051764965057373
      ],
      "min": [
        -2.051764965057373,
        0.08258400112390518,
        -2.051764965057373
      ],
      "type": "VEC3"
    },
    {
      "bufferView": 2,
      "byteOffset": 888,
      "componentType": 5126,
      "count": 74,
      "max": [
        0.42863214015960693,
        1.0,
        0.42863214015960693
      ],
      "min": [
        -0.42863214015960693,
        -1.0,
        -0.42863214015960693
      ],
      "type": "VEC3"
    },
    {
      "bufferView": 3,
      "componentType": 5126,
      "count": 74,
      "max": [
        0.9659627079963684,
        0.4437527358531952,
        0.3032756447792053,
        1.0
      ],
      "min": [
        0.7072047591209412,
        -0.4437527358531952,
        -0.7070088386535645,
        1.0
      ],
      "type": "VEC4"
    },
    {
      "bufferView": 1,
      "componentType": 5126,
      "count": 74,
      "max": [
        0.32381701469421387,
        0.6827989816665649
      ],
      "min": [
        0.003914999775588512,
        0.3825579881668091
      ],
      "type": "VEC2"
    },
    {
      "bufferView": 0,
      "componentType": 5125,
      "count": 144,
      "type": "SCALAR"
    },
    {
      "bufferView": 2,
      "byteOffset": 1776,
      "componentType": 5126,
      "count": 3739,
      "max": [
        2.2223639488220215,
        0.7957170009613037,
        2.4173219203948975
      ],
      "min": [
        -2.153017997741699,
        -0.19432799518108368,
        -2.3624370098114014
      ],
      "type": "VEC3"
    },
    {
      "bufferView": 2,
      "byteOffset": 46644,
      "componentType": 5126,
      "count": 3739,
      "max": [
        0.9988267421722412,
        0.9999781250953674,
        0.9995063543319702
      ],
      "min": [
        -0.999751091003418,
        -0.9997677803039551,
        -0.9992228746414185
      ],
      "type": "VEC3"
    },
    {
      "bufferView": 3,
      "byteOffset": 1184,
      "componentType": 5126,
      "count": 3739,
      "max": [
        0.9999063014984131,
        0.9969098567962646,
        0.9993194937705994,
        1.0
      ],
      "min": [
        -0.9998058080673218,
        -0.9994651079177856,
        -0.9999905228614807,
        -1.0
      ],
      "type": "VEC4"
    },
    {
      "bufferView": 1,
      "byteOffset": 592,
      "componentType": 5126,
      "count": 3739,
      "max": [
        0.9904490113258362,
        0.996059000492096
      ],
      "min": [
        0.018352000042796135,
        0.34161698818206787
      ],
      "type": "VEC2"
    },
    {
      "bufferView": 0,
      "byteOffset": 576,
      "componentType": 5125,
      "count": 10044,
      "type": "SCALAR"
    },
    {
      "bufferView": 2,
      "byteOffset": 91512,
      "componentType": 5126,
      "count": 64,
      "max": [
        -0.563293993473053,
        0.5865610241889954,
        -0.5100839734077454
      ],
      "min": [
        -0.7706210017204285,
        0.46796101331710815,
        -0.7459040284156799
      ],
      "type": "VEC3"
    },
    {
      "bufferView": 2,
      "byteOffset": 92280,
      "componentType": 5126,
      "count": 64,
      "max": [
        0.8962571024894714,
        0.9232712388038635,
        0.7097968459129333
      ],
      "min": [
        -0.8019458055496216,
        -0.995692253112793,
        -0.7154761552810669
      ],
      "type": "VEC3"
    },
    {
      "bufferView": 3,
      "byteOffset": 61008,
      "componentType": 5126,
      "count": 64,
      "max": [
        0.8054677844047546,
        0.93239426612854,
        0.8240171074867249,
        1.0
      ],
      "min": [
        -0.8848557472229004,
        -0.9067774415016174,
        -0.9923016428947449,
        1.0
      ],
      "type": "VEC4"
    },
    {
      "bufferView": 1,
      "byteOffset": 30504,
      "componentType": 5126,
      "count": 64,
      "max": [
        0.9918249845504761,
        0.35627201199531555
      ],
      "min": [
        0.7753739953041077,
        0.006603999994695187
      ],
      "type": "VEC2"
    },
    {
      "bufferView": 0,
      "byteOffset": 40752,
      "componentType": 5125,
      "count": 114,
      "type": "SCALAR"
    },
    {
      "bufferView": 2,
      "byteOffset": 93048,
      "componentType": 5126,
      "count": 63,
      "max": [
        -0.7515209913253784,
        0.6366530060768127,
        0.19855499267578125
      ],
      "min": [
        -0.9123309850692749,
        0.4754039943218231,
        -0.07665900141000748
      ],
      "type": "VEC3"
    },
    {
      "bufferView": 2,
      "byteOffset": 93804,
      "componentType": 5126,
      "count": 63,
      "max": [
        0.9591699838638306,
        0.8411601185798645,
        0.7338950634002686
      ],
      "min": [
        -0.894411027431488,
        -0.9351208806037903,
        -0.8373399972915649
      ],
      "type": "VEC3"
    },
    {
      "bufferView": 3,
      "byteOffset": 62032,
      "componentType": 5126,
      "count": 63,
      "max": [
        0.8385348916053772,
        0.9440736770629883,
        0.8591979146003723,
        1.0
      ],
      "min": [
        -0.9730125665664673,
        -0.9565330743789673,
        -0.9372667670249939,
        1.0
      ],
      "type": "VEC4"
    },
    {
      "bufferView": 1,
      "byteOffset": 31016,
      "componentType": 5126,
      "count": 63,
      "max": [
        0.9918249845504761,
        0.35627201199531555
      ],
      "min": [
        0.7753739953041077,
        0.006603999994695187
      ],
      "type": "VEC2"
    },
    {
      "bufferView": 0,
      "byteOffset": 41208,
      "componentType": 5125,
      "count": 114,
      "type": "SCALAR"
    },
    {
      "bufferView": 2,
      "byteOffset": 94560,
      "componentType": 5126,
      "count": 64,
      "max": [
        -0.7255560159683228,
        0.5679129958152771,
        -0.6801480054855347
      ],
      "min": [
        -1.0454139709472656,
        0.47691500186920166,
        -0.8457130193710327
      ],
      "type": "VEC3"
    },
    {
      "bufferView": 2,
      "byteOffset": 95328,
      "componentType": 5126,
      "count": 64,
      "max": [
        0.28290092945098877,
        0.990622878074646,
        0.818162202835083
      ],
      "min": [
        -0.9647833704948425,
        -0.9992258548736572,
        -0.9646655321121216
      ],
      "type": "VEC3"
    },
    {
      "bufferView": 3,
      "byteOffset": 63040,
      "componentType": 5126,
      "count": 64,
      "max": [
        0.8749659657478333,
        0.9005119204521179,
        0.9806169867515564,
        1.0
      ],
      "min": [
        -0.9960396885871887,
        -0.808509349822998,
        -0.9336442351341248,
        1.0
      ],
      "type": "VEC4"
    },
    {
      "bufferView": 1,
      "byteOffset": 31520,
      "componentType": 5126,
      "count": 64,
      "max": [
        0.9918239712715149,
        0.35627201199531555
      ],
      "min": [
        0.7753739953041077,
        0.006603999994695187
      ],
      "type": "VEC2"
    },
    {
      "bufferView": 0,
      "byteOffset": 41664,
      "componentType": 5125,
      "count": 114,
      "type": "SCALAR"
    },
    {
      "bufferView": 2,
      "byteOffset": 96096,
      "componentType": 5126,
      "count": 64,
      "max": [
        -0.7066310048103333,
        0.5686579942703247,
        -0.19569699466228485
      ],
      "min": [
        -0.8772460222244263,
        0.4862389862537384,
        -0.47616899013519287
      ],
      "type": "VEC3"
    },
    {
      "bufferView": 2,
      "byteOffset": 96864,
      "componentType": 5126,
      "count": 64,
      "max": [
        0.7877618670463562,
        0.9933768510818481,
        0.8487474322319031
      ],
      "min": [
        -0.8717871904373169,
        -0.9691614508628845,
        -0.6476077437400818
      ],
      "type": "VEC3"
    },
    {
      "bufferView": 3,
      "byteOffset": 64064,
      "componentType": 5126,
      "count": 64,
      "max": [
        0.9136573672294617,
        0.9744853973388672,
        0.9383454918861389,
        1.0
      ],
      "min": [
        -0.9994993805885315,
        -0.9339403510093689,
        -0.986379861831665,
        1.0
      ],
      "type": "VEC4"
    },
    {
      "bufferView": 1,
      "byteOffset": 32032,
      "componentType": 5126,
      "count": 64,
      "max": [
        0.9918249845504761,
        0.35627201199531555
      ],
      "min": [
        0.7753739953041077,
        0.006603999994695187
      ],
      "type": "VEC2"
    },
    {
      "bufferView": 0,
      "byteOffset": 42120,
      "componentType": 5125,
      "count": 114,
      "type": "SCALAR"
    },
    {
      "bufferView": 2,
      "byteOffset": 97632,
      "componentType": 5126,
      "count": 62,
      "max": [
        -0.9678210020065308,
        0.5623490214347839,
        0.15068300068378448
      ],
      "min": [
        -1.2509020566940308,
        0.4796600043773651,
        -0.023814000189304352
      ],
      "type": "VEC3"
    },
    {
      "bufferView": 2,
      "byteOffset": 98376,
      "componentType": 5126,
      "count": 62,
      "max": [
        0.8543408513069153,
        0.9762284755706787,
        0.8453695774078369
      ],
      "min": [
        -0.6769430637359619,
        -0.9901807904243469,
        -0.7134709358215332
      ],
      "type": "VEC3"
    },
    {
      "bufferView": 3,
      "byteOffset": 65088,
      "componentType": 5126,
      "count": 62,
      "max": [
        0.9395790100097656,
        0.9305156469345093,
        0.6588473916053772,
        1.0
      ],
      "min": [
        -0.9807149767875671,
        -0.769220769405365,
        -0.9980348348617554,
        1.0
      ],
      "type": "VEC4"
    },
    {
      "bufferView": 1,
      "byteOffset": 32544,
      "componentType": 5126,
      "count": 62,
      "max": [
        0.9918249845504761,
        0.35627201199531555
      ],
      "min": [
        0.7753739953041077,
        0.006603999994695187
      ],
      "type": "VEC2"
    },
    {
      "bufferView": 0,
      "byteOffset": 42576,
      "componentType": 5125,
      "count": 114,
      "type": "SCALAR"
    },
    {
      "bufferView": 2,
      "byteOffset": 99120,
      "componentType": 5126,
      "count": 64,
      "max": [
        -1.0835520029067993,
        0.542739987373352,
        -0.22254300117492676
      ],
      "min": [
        -1.2532720565795898,
        0.43960699439048767,
        -0.5143200159072876
      ],
      "type": "VEC3"
    },
    {
      "bufferView": 2,
      "byteOffset": 99888,
      "componentType": 5126,
      "count": 64,
      "max": [
        0.9347322583198547,
        0.9834070205688477,
        0.8800656795501709
      ],
      "min": [
        -0.7637438774108887,
        -0.9923056364059448,
        -0.6211392283439636
      ],
      "type": "VEC3"
    },
    {
      "bufferView": 3,
      "byteOffset": 66080,
      "componentType": 5126,
      "count": 64,
      "max": [
        0.9922739267349243,
        0.9529343843460083,
        0.9617131948471069,
        1.0
      ],
      "min": [
        -0.5789043307304382,
        -0.9443849325180054,
        -0.9908303022384644,
        1.0
      ],
      "type": "VEC4"
    },
    {
      "bufferView": 1,
      "byteOffset": 33040,
      "componentType": 5126,
      "count": 64,
      "max": [
        0.9918249845504761,
        0.35627201199531555
      ],
      "min": [
        0.7753739953041077,
        0.006603999994695187
      ],
      "type": "VEC2"
    },
    {
      "bufferView": 0,
      "byteOffset": 43032,
      "componentType": 5125,
      "count": 114,
      "type": "SCALAR"
    },
    {
      "bufferView": 2,
      "byteOffset": 100656,
      "componentType": 5126,
      "count": 64,
      "max": [
        1.1112289428710938,
        0.6081669926643372,
        -0.2971220016479492
      ],
      "min": [
        0.8153640031814575,
        0.46306198835372925,
        -0.4460679888725281
      ],
      "type": "VEC3"
    },
    {
      "bufferView": 2,
      "byteOffset": 101424,
      "componentType": 5126,
      "count": 64,
      "max": [
        0.898405909538269,
        0.9539148807525635,
        0.945122241973877
      ],
      "min": [
        -0.6678741574287415,
        -0.9219799041748047,
        -0.9007894396781921
      ],
      "type": "VEC3"
    },
    {
      "bufferView": 3,
      "byteOffset": 67104,
      "componentType": 5126,
      "count": 64,
      "max": [
        0.9805970788002014,
        0.8127622008323669,
        0.8218615055084229,
        1.0
      ],
      "min": [
        -0.9627407193183899,
        -0.9615113735198975,
        -0.9713544249534607,
        1.0
      ],
      "type": "VEC4"
    },
    {
      "bufferView": 1,
      "byteOffset": 33552,
      "componentType": 5126,
      "count": 64,
      "max": [
        0.9918239712715149,
        0.35627201199531555
      ],
      "min": [
        0.7753739953041077,
        0.006603999994695187
      ],
      "type": "VEC2"
    },
    {
      "bufferView": 0,
      "byteOffset": 43488,
      "componentType": 5125,
      "count": 114,
      "type": "SCALAR"
    },
    {
      "bufferView": 2,
      "byteOffset": 102192,
      "componentType": 5126,
      "count": 63,
      "max": [
        -0.4482850134372711,
        0.594419002532959,
        -0.7344210147857666
      ],
      "min": [
        -0.6298390030860901,
        0.44678598642349243,
        -1.0322320461273193
      ],
      "type": "VEC3"
    },
    {
      "bufferView": 2,
      "byteOffset": 102948,
      "componentType": 5126,
      "count": 63,
      "max": [
        0.9954404830932617,
        0.9265964031219482,
        0.6314423680305481
      ],
      "min": [
        -0.8214598894119263,
        -0.9883419871330261,
        -0.9056183099746704
      ],
      "type": "VEC3"
    },
    {
      "bufferView": 3,
      "byteOffset": 68128,
      "componentType": 5126,
      "count": 63,
      "max": [
        0.8407997488975525,
        0.8644458055496216,
        0.8834782838821411,
        1.0
      ],
      "min": [
        -0.9954289197921753,
        -0.7303683757781982,
        -0.9662083387374878,
        1.0
      ],
      "type": "VEC4"
    },
    {
      "bufferView": 1,
      "byteOffset": 34064,
      "componentType": 5126,
      "count": 63,
      "max": [
        0.9918239712715149,
        0.35627201199531555
      ],
      "min": [
        0.7753739953041077,
        0.006603999994695187
      ],
      "type": "VEC2"
    },
    {
      "bufferView": 0,
      "byteOffset": 43944,
      "componentType": 5125,
      "count": 114,
      "type": "SCALAR"
    },
    {
      "bufferView": 2,
      "byteOffset": 103704,
      "componentType": 5126,
      "count": 64,
      "max": [
        -0.09057500213384628,
        0.5423150062561035,
        0.312610000371933
      ],
      "min": [
        -0.26403000950813293,
        0.48158198595046997,
        0.005332999862730503
      ],
      "type": "VEC3"
    },
    {
      "bufferView": 2,
      "byteOffset": 104472,
      "componentType": 5126,
      "count": 64,
      "max": [
        0.8112768530845642,
        0.9999382495880127,
        0.3961251676082611
      ],
      "min": [
        -0.9245824217796326,
        -0.987067461013794,
        -0.92453533411026
      ],
      "type": "VEC3"
    },
    {
      "bufferView": 3,
      "byteOffset": 69136,
      "componentType": 5126,
      "count": 64,
      "max": [
        0.6026244163513184,
        0.9957453012466431,
        0.9914414286613464,
        1.0
      ],
      "min": [
        -0.98395174741745,
        -0.9878051280975342,
        -0.9958293437957764,
        1.0
      ],
      "type": "VEC4"
    },
    {
      "bufferView": 1,
      "byteOffset": 34568,
      "componentType": 5126,
      "count": 64,
      "max": [
        0.9918249845504761,
        0.35627201199531555
      ],
      "min": [
        0.7753739953041077,
        0.006603999994695187
      ],
      "type": "VEC2"
    },
    {
      "bufferView": 0,
      "byteOffset": 44400,
      "componentType": 5125,
      "count": 114,
      "type": "SCALAR"
    },
    {
      "bufferView": 2,
      "byteOffset": 105240,
      "componentType": 5126,
      "count": 64,
      "max": [
        0.6075220108032227,
        0.6622040271759033,
        0.47234898805618286
      ],
      "min": [
        0.34589898586273193,
        0.4620800018310547,
        0.33994200825691223
      ],
      "type": "VEC3"
    },
    {
      "bufferView": 2,
      "byteOffset": 106008,
      "componentType": 5126,
      "count": 64,
      "max": [
        0.7883360981941223,
        0.822152853012085,
        0.955464243888855
      ],
      "min": [
        -0.7385257482528687,
        -0.9191849827766418,
        -0.966919481754303
      ],
      "type": "VEC3"
    },
    {
      "bufferView": 3,
      "byteOffset": 70160,
      "componentType": 5126,
      "count": 64,
      "max": [
        0.8999910354614258,
        0.9918422698974609,
        0.7013577818870544,
        1.0
      ],
      "min": [
        -0.9592024087905884,
        -0.766533374786377,
        -0.9622892141342163,
        1.0
      ],
      "type": "VEC4"
    },
    {
      "bufferView": 1,
      "byteOffset": 35080,
      "componentType": 5126,
      "count": 64,
      "max": [
        0.9918239712715149,
        0.35627201199531555
      ],
      "min": [
        0.7753739953041077,
        0.006603999994695187
      ],
      "type": "VEC2"
    },
    {
      "bufferView": 0,
      "byteOffset": 44856,
      "componentType": 5125,
      "count": 114,
      "type": "SCALAR"
    },
    {
      "bufferView": 2,
      "byteOffset": 106776,
      "componentType": 5126,
      "count": 64,
      "max": [
        -0.19516099989414215,
        0.6103410124778748,
        0.7723860144615173
      ],
      "min": [
        -0.43862301111221313,
        0.41162899136543274,
        0.6066269874572754
      ],
      "type": "VEC3"
    },
    {
      "bufferView": 2,
      "byteOffset": 107544,
      "componentType": 5126,
      "count": 64,
      "max": [
        0.7362383604049683,
        0.8740628957748413,
        0.7530418634414673
      ],
      "min": [
        -0.8320768475532532,
        -0.9352961182594299,
        -0.9450021386146545
      ],
      "type": "VEC3"
    },
    {
      "bufferView": 3,
      "byteOffset": 71184,
      "componentType": 5126,
      "count": 64,
      "max": [
        0.9058324694633484,
        0.8550304174423218,
        0.5999529957771301,
        1.0
      ],
      "min": [
        -0.9106367230415344,
        -0.8044169545173645,
        -0.9882003664970398,
        1.0
      ],
      "type": "VEC4"
    },
    {
      "bufferView": 1,
      "byteOffset": 35592,
      "componentType": 5126,
      "count": 64,
      "max": [
        0.9918249845504761,
        0.35627201199531555
      ],
      "min": [
        0.7753739953041077,
        0.006603999994695187
      ],
      "type": "VEC2"
    },
    {
      "bufferView": 0,
      "byteOffset": 45312,
      "componentType": 5125,
      "count": 114,
      "type": "SCALAR"
    },
    {
      "bufferView": 2,
      "byteOffset": 108312,
      "componentType": 5126,
      "count": 64,
      "max": [
        1.07716703414917,
        0.6274279952049255,
        0.1687140017747879
      ],
      "min": [
        0.9816740155220032,
        0.47821399569511414,
        -0.12860499322414398
      ],
      "type": "VEC3"
    },
    {
      "bufferView": 2,
      "byteOffset": 109080,
      "componentType": 5126,
      "count": 64,
      "max": [
        0.9835787415504456,
        0.845514178276062,
        0.5391800999641418
      ],
      "min": [
        -0.9927263855934143,
        -0.8631808757781982,
        -0.8952853083610535
      ],
      "type": "VEC3"
    },
    {
      "bufferView": 3,
      "byteOffset": 72208,
      "componentType": 5126,
      "count": 64,
      "max": [
        0.8623127937316895,
        0.9734601974487305,
        0.9990699887275696,
        1.0
      ],
      "min": [
        -0.863579511642456,
        -0.7152462005615234,
        -0.9809775948524475,
        1.0
      ],
      "type": "VEC4"
    },
    {
      "bufferView": 1,
      "byteOffset": 36104,
      "componentType": 5126,
      "count": 64,
      "max": [
        0.9918249845504761,
        0.35627201199531555
      ],
      "min": [
        0.7753739953041077,
        0.006603999994695187
      ],
      "type": "VEC2"
    },
    {
      "bufferView": 0,
      "byteOffset": 45768,
      "componentType": 5125,
      "count": 114,
      "type": "SCALAR"
    },
    {
      "bufferView": 2,
      "byteOffset": 109848,
      "componentType": 5126,
      "count": 64,
      "max": [
        0.20529699325561523,
        0.5623999834060669,
        -0.3650830090045929
      ],
      "min": [
        0.04112999886274338,
        0.46850499510765076,
        -0.6886000037193298
      ],
      "type": "VEC3"
    },
    {
      "bufferView": 2,
      "byteOffset": 110616,
      "componentType": 5126,
      "count": 64,
      "max": [
        0.9685820937156677,
        0.9952854514122009,
        0.2609221041202545
      ],
      "min": [
        -0.848766565322876,
        -0.9999651312828064,
        -0.9770826697349548
      ],
      "type": "VEC3"
    },
    {
      "bufferView": 3,
      "byteOffset": 73232,
      "componentType": 5126,
      "count": 64,
      "max": [
        0.9098753929138184,
        0.8866753578186035,
        0.8662217855453491,
        1.0
      ],
      "min": [
        -0.9774036407470703,
        -0.8184656500816345,
        -0.9991430640220642,
        1.0
      ],
      "type": "VEC4"
    },
    {
      "bufferView": 1,
      "byteOffset": 36616,
      "componentType": 5126,
      "count": 64,
      "max": [
        0.9918249845504761,
        0.35627201199531555
      ],
      "min": [
        0.7753739953041077,
        0.006603999994695187
      ],
      "type": "VEC2"
    },
    {
      "bufferView": 0,
      "byteOffset": 46224,
      "componentType": 5125,
      "count": 114,
      "type": "SCALAR"
    },
    {
      "bufferView": 2,
      "byteOffset": 111384,
      "componentType": 5126,
      "count": 64,
      "max": [
        0.8354380130767822,
        0.5664259791374207,
        0.7292289733886719
      ],
      "min": [
        0.6648229956626892,
        0.48400700092315674,
        0.44875699281692505
      ],
      "type": "VEC3"
    },
    {
      "bufferView": 2,
      "byteOffset": 112152,
      "componentType": 5126,
      "count": 64,
      "max": [
        0.7877610921859741,
        0.9933768510818481,
        0.8487499952316284
      ],
      "min": [
        -0.8717913031578064,
        -0.9691612124443054,
        -0.6476072669029236
      ],
      "type": "VEC3"
    },
    {
      "bufferView": 3,
      "byteOffset": 74256,
      "componentType": 5126,
      "count": 64,
      "max": [
        0.9136579632759094,
        0.9744926691055298,
        0.9383552670478821,
        1.0
      ],
      "min": [
        -0.9994993805885315,
        -0.9338947534561157,
        -0.9863797426223755,
        1.0
      ],
      "type": "VEC4"
    },
    {
      "bufferView": 1,
      "byteOffset": 37128,
      "componentType": 5126,
      "count": 64,
      "max": [
        0.9918249845504761,
        0.35627201199531555
      ],
      "min": [
        0.7753739953041077,
        0.006603999994695187
      ],
      "type": "VEC2"
    },
    {
      "bufferView": 0,
      "byteOffset": 46680,
      "componentType": 5125,
      "count": 114,
      "type": "SCALAR"
    },
    {
      "bufferView": 2,
      "byteOffset": 112920,
      "componentType": 5126,
      "count": 64,
      "max": [
        0.5342040061950684,
        0.6339820027351379,
        0.7840560078620911
      ],
      "min": [
        0.25022000074386597,
        0.4647429883480072,
        0.6190159916877747
      ],
      "type": "VEC3"
    },
    {
      "bufferView": 2,
      "byteOffset": 113688,
      "componentType": 5126,
      "count": 64,
      "max": [
        0.7151201963424683,
        0.8785744309425354,
        0.9761490225791931
      ],
      "min": [
        -0.8602482080459595,
        -0.9694677591323853,
        -0.8668429851531982
      ],
      "type": "VEC3"
    },
    {
      "bufferView": 3,
      "byteOffset": 75280,
      "componentType": 5126,
      "count": 64,
      "max": [
        0.9691007137298584,
        0.939111053943634,
        0.9872224926948547,
        1.0
      ],
      "min": [
        -0.9553800225257874,
        -0.8677676916122437,
        -0.7353599667549133,
        1.0
      ],
      "type": "VEC4"
    },
    {
      "bufferView": 1,
      "byteOffset": 37640,
      "componentType": 5126,
      "count": 64,
      "max": [
        0.9918249845504761,
        0.35627201199531555
      ],
      "min": [
        0.7753739953041077,
        0.006603999994695187
      ],
      "type": "VEC2"
    },
    {
      "bufferView": 0,
      "byteOffset": 47136,
      "componentType": 5125,
      "count": 114,
      "type": "SCALAR"
    },
    {
      "bufferView": 2,
      "byteOffset": 114456,
      "componentType": 5126,
      "count": 64,
      "max": [
        0.6064710021018982,
        0.565542995929718,
        0.29822999238967896
      ],
      "min": [
        0.4294489920139313,
        0.4845229983329773,
        -0.02411399967968464
      ],
      "type": "VEC3"
    },
    {
      "bufferView": 2,
      "byteOffset": 115224,
      "componentType": 5126,
      "count": 64,
      "max": [
        0.7900761365890503,
        0.9708138704299927,
        0.9782689809799194
      ],
      "min": [
        -0.981472373008728,
        -0.9878504872322083,
        -0.46697598695755005
      ],
      "type": "VEC3"
    },
    {
      "bufferView": 3,
      "byteOffset": 76304,
      "componentType": 5126,
      "count": 64,
      "max": [
        0.9857363104820251,
        0.9326078295707703,
        0.9983662962913513,
        1.0
      ],
      "min": [
        -0.7788099050521851,
        -0.7761703729629517,
        -0.974550187587738,
        1.0
      ],
      "type": "VEC4"
    },
    {
      "bufferView": 1,
      "byteOffset": 38152,
      "componentType": 5126,
      "count": 64,
      "max": [
        0.9918249845504761,
        0.35627201199531555
      ],
      "min": [
        0.7753739953041077,
        0.006603999994695187
      ],
      "type": "VEC2"
    },
    {
      "bufferView": 0,
      "byteOffset": 47592,
      "componentType": 5125,
      "count": 114,
      "type": "SCALAR"
    },
    {
      "bufferView": 2,
      "byteOffset": 115992,
      "componentType": 5126,
      "count": 64,
      "max": [
        -0.4903259873390198,
        0.5656870007514954,
        0.5446410179138184
      ],
      "min": [
        -0.8187389969825745,
        0.4738349914550781,
        0.37592700123786926
      ],
      "type": "VEC3"
    },
    {
      "bufferView": 2,
      "byteOffset": 116760,
      "componentType": 5126,
      "count": 64,
      "max": [
        0.9957236647605896,
        0.9931660294532776,
        0.8640631437301636
      ],
      "min": [
        -0.34154778718948364,
        -0.9995909929275513,
        -0.9806258678436279
      ],
      "type": "VEC3"
    },
    {
      "bufferView": 3,
      "byteOffset": 77328,
      "componentType": 5126,
      "count": 64,
      "max": [
        0.9916620254516602,
        0.9994441270828247,
        0.8718732595443726,
        1.0
      ],
      "min": [
        -0.9063745141029358,
        -0.9877980947494507,
        -0.9952936172485352,
        1.0
      ],
      "type": "VEC4"
    },
    {
      "bufferView": 1,
      "byteOffset": 38664,
      "componentType": 5126,
      "count": 64,
      "max": [
        0.9918239712715149,
        0.35627201199531555
      ],
      "min": [
        0.7753739953041077,
        0.006603999994695187
      ],
      "type": "VEC2"
    },
    {
      "bufferView": 0,
      "byteOffset": 48048,
      "componentType": 5125,
      "count": 114,
      "type": "SCALAR"
    },
    {
      "bufferView": 2,
      "byteOffset": 117528,
      "componentType": 5126,
      "count": 64,
      "max": [
        -0.29051700234413147,
        0.5669280290603638,
        0.9909070134162903
      ],
      "min": [
        -0.5682349801063538,
        0.4538770020008087,
        0.8245900273323059
      ],
      "type": "VEC3"
    },
    {
      "bufferView": 2,
      "byteOffset": 118296,
      "componentType": 5126,
      "count": 64,
      "max": [
        0.6747540831565857,
        0.9776763319969177,
        0.7499380111694336
      ],
      "min": [
        -0.8409507274627686,
        -0.9826440215110779,
        -0.9082552194595337
      ],
      "type": "VEC3"
    },
    {
      "bufferView": 3,
      "byteOffset": 78352,
      "componentType": 5126,
      "count": 64,
      "max": [
        0.981694757938385,
        0.9470914006233215,
        0.9572725892066956,
        1.0
      ],
      "min": [
        -0.9352853894233704,
        -0.8774241805076599,
        -0.9950810670852661,
        1.0
      ],
      "type": "VEC4"
    },
    {
      "bufferView": 1,
      "byteOffset": 39176,
      "componentType": 5126,
      "count": 64,
      "max": [
        0.9918249845504761,
        0.35627201199531555
      ],
      "min": [
        0.7753739953041077,
        0.006603999994695187
      ],
      "type": "VEC2"
    },
    {
      "bufferView": 0,
      "byteOffset": 48504,
      "componentType": 5125,
      "count": 114,
      "type": "SCALAR"
    },
    {
      "bufferView": 2,
      "byteOffset": 119064,
      "componentType": 5126,
      "count": 42,
      "max": [
        0.2724049985408783,
        1.179792046546936,
        0.5505509972572327
      ],
      "min": [
        -0.9794930219650269,
        0.11592599749565125,
        -1.0148890018463135
      ],
      "type": "VEC3"
    },
    {
      "bufferView": 2,
      "byteOffset": 119568,
      "componentType": 5126,
      "count": 42,
      "max": [
        0.5612300634384155,
        0.825896143913269,
        0.7802246809005737
      ],
      "min": [
        -0.8697358965873718,
        -0.91462242603302,
        -0.7802246809005737
      ],
      "type": "VEC3"
    },
    {
      "bufferView": 3,
      "byteOffset": 79376,
      "componentType": 5126,
      "count": 42,
      "max": [
        0.8522053956985474,
        0.7549680471420288,
        0.6070606708526611,
        1.0
      ],
      "min": [
        -0.6652354598045349,
        -0.9039353132247925,
        -0.6231273412704468,
        1.0
      ],
      "type": "VEC4"
    },
    {
      "bufferView": 1,
      "byteOffset": 39688,
      "componentType": 5126,
      "count": 42,
      "max": [
        0.8536720275878906,
        0.5279380083084106
      ],
      "min": [
        0.014491000212728977,
        0.009685000404715538
      ],
      "type": "VEC2"
    },
    {
      "bufferView": 0,
      "byteOffset": 48960,
      "componentType": 5125,
      "count": 72,
      "type": "SCALAR"
    },
    {
      "bufferView": 2,
      "byteOffset": 120072,
      "componentType": 5126,
      "count": 42,
      "max": [
        1.2492090463638306,
        1.0438179969787598,
        0.5252839922904968
      ],
      "min": [
        0.15023699402809143,
        0.1006999984383583,
        -1.094180941581726
      ],
      "type": "VEC3"
    },
    {
      "bufferView": 2,
      "byteOffset": 120576,
      "componentType": 5126,
      "count": 42,
      "max": [
        0.7534661889076233,
        0.6400882005691528,
        0.88740473985672
      ],
      "min": [
        -0.8847964406013489,
        -0.9669511318206787,
        -0.8874050974845886
      ],
      "type": "VEC3"
    },
    {
      "bufferView": 3,
      "byteOffset": 80048,
      "componentType": 5126,
      "count": 42,
      "max": [
        0.8254365921020508,
        0.952052652835846,
        0.4609503149986267,
        1.0
      ],
      "min": [
        -0.9204577207565308,
        -0.726944088935852,
        -0.4547816216945648,
        1.0
      ],
      "type": "VEC4"
    },
    {
      "bufferView": 1,
      "byteOffset": 40024,
      "componentType": 5126,
      "count": 42,
      "max": [
        0.8536720275878906,
        0.5279380083084106
      ],
      "min": [
        0.014491000212728977,
        0.009685000404715538
      ],
      "type": "VEC2"
    },
    {
      "bufferView": 0,
      "byteOffset": 49248,
      "componentType": 5125,
      "count": 72,
      "type": "SCALAR"
    },
    {
      "bufferView": 2,
      "byteOffset": 121080,
      "componentType": 5126,
      "count": 42,
      "max": [
        0.5008699893951416,
        1.139847993850708,
        1.1533429622650146
      ],
      "min": [
        -0.2591229975223541,
        0.10301700234413147,
        -0.35291099548339844
      ],
      "type": "VEC3"
    },
    {
      "bufferView": 2,
      "byteOffset": 121584,
      "componentType": 5126,
      "count": 42,
      "max": [
        0.9426407814025879,
        0.851319432258606,
        0.8968420028686523
      ],
      "min": [
        -0.9586312174797058,
        -0.9343713521957397,
        -0.8968416452407837
      ],
      "type": "VEC3"
    },
    {
      "bufferView": 3,
      "byteOffset": 80720,
      "componentType": 5126,
      "count": 42,
      "max": [
        0.9608768224716187,
        0.9285988211631775,
        0.4381153881549835,
        1.0
      ],
      "min": [
        -0.9156447052955627,
        -0.9122560024261475,
        -0.44219329953193665,
        1.0
      ],
      "type": "VEC4"
    },
    {
      "bufferView": 1,
      "byteOffset": 40360,
      "componentType": 5126,
      "count": 42,
      "max": [
        0.8536720275878906,
        0.5279380083084106
      ],
      "min": [
        0.014491000212728977,
        0.009685000404715538
      ],
      "type": "VEC2"
    },
    {
      "bufferView": 0,
      "byteOffset": 49536,
      "componentType": 5125,
      "count": 72,
      "type": "SCALAR"
    },
    {
      "bufferView": 2,
      "byteOffset": 122088,
      "componentType": 5126,
      "count": 132,
      "max": [
        0.41661399602890015,
        0.6965540051460266,
        -0.8262289762496948
      ],
      "min": [
        -0.12604300677776337,
        0.23551799356937408,
        -1.1689519882202148
      ],
      "type": "VEC3"
    },
    {
      "bufferView": 2,
      "byteOffset": 123672,
      "componentType": 5126,
      "count": 132,
      "max": [
        0.7647520899772644,
        0.999207615852356,
        0.9854761362075806
      ],
      "min": [
        -0.9270187616348267,
        -0.972410261631012,
        -0.9473538994789124
      ],
      "type": "VEC3"
    },
    {
      "bufferView": 3,
      "byteOffset": 81392,
      "componentType": 5126,
      "count": 132,
      "max": [
        0.9981773495674133,
        0.630903422832489,
        0.8822335004806519,
        1.0
      ],
      "min": [
        -0.4504198729991913,
        -0.9866845607757568,
        -0.986676812171936,
        1.0
      ],
      "type": "VEC4"
    },
    {
      "bufferView": 1,
      "byteOffset": 40696,
      "componentType": 5126,
      "count": 132,
      "max": [
        0.29318198561668396,
        0.44763100147247314
      ],
      "min": [
        0.004854999948292971,
        0.21097099781036377
      ],
      "type": "VEC2"
    },
    {
      "bufferView": 0,
      "byteOffset": 49824,
      "componentType": 5125,
      "count": 282,
      "type": "SCALAR"
    },
    {
      "bufferView": 2,
      "byteOffset": 125256,
      "componentType": 5126,
      "count": 168,
      "max": [
        -0.175927996635437,
        0.7558460235595703,
        0.7488629817962646
      ],
      "min": [
        -0.7427499890327454,
        0.4556080102920532,
        0.2447669953107834
      ],
      "type": "VEC3"
    },
    {
      "bufferView": 2,
      "byteOffset": 127272,
      "componentType": 5126,
      "count": 168,
      "max": [
        0.9207585453987122,
        0.9205017685890198,
        0.9972555041313171
      ],
      "min": [
        -0.97696453332901,
        -0.9822542667388916,
        -0.9914531111717224
      ],
      "type": "VEC3"
    },
    {
      "bufferView": 3,
      "byteOffset": 83504,
      "componentType": 5126,
      "count": 168,
      "max": [
        0.9857946038246155,
        0.9943418502807617,
        0.9772982001304626,
        1.0
      ],
      "min": [
        -0.9614315629005432,
        -0.9597213864326477,
        -0.9978455901145935,
        1.0
      ],
      "type": "VEC4"
    },
    {
      "bufferView": 1,
      "byteOffset": 41752,
      "componentType": 5126,
      "count": 168,
      "max": [
        0.8263729810714722,
        0.3206329941749573
      ],
      "min": [
        0.47146400809288025,
        0.009530999697744846
      ],
      "type": "VEC2"
    },
    {
      "bufferView": 0,
      "byteOffset": 50952,
      "componentType": 5125,
      "count": 342,
      "type": "SCALAR"
    },
    {
      "bufferView": 2,
      "byteOffset": 129288,
      "componentType": 5126,
      "count": 168,
      "max": [
        0.6599010229110718,
        0.6852790117263794,
        1.097790002822876
      ],
      "min": [
        0.29987800121307373,
        0.4284060001373291,
        0.48215100169181824
      ],
      "type": "VEC3"
    },
    {
      "bufferView": 2,
      "byteOffset": 131304,
      "componentType": 5126,
      "count": 168,
      "max": [
        0.9594383835792542,
        0.9949624538421631,
        0.9665162563323975
      ],
      "min": [
        -0.9096261262893677,
        -0.8482940196990967,
        -0.9623414874076843
      ],
      "type": "VEC3"
    },
    {
      "bufferView": 3,
      "byteOffset": 86192,
      "componentType": 5126,
      "count": 168,
      "max": [
        0.8033292293548584,
        0.9847015142440796,
        0.9943835735321045,
        1.0
      ],
      "min": [
        -0.9141703248023987,
        -0.9936825037002563,
        -0.9275016188621521,
        1.0
      ],
      "type": "VEC4"
    },
    {
      "bufferView": 1,
      "byteOffset": 43096,
      "componentType": 5126,
      "count": 168,
      "max": [
        0.5283600091934204,
        0.2800840139389038
      ],
      "min": [
        0.24761900305747986,
        0.013787999749183655
      ],
      "type": "VEC2"
    },
    {
      "bufferView": 0,
      "byteOffset": 52320,
      "componentType": 5125,
      "count": 342,
      "type": "SCALAR"
    },
    {
      "bufferView": 2,
      "byteOffset": 133320,
      "componentType": 5126,
      "count": 132,
      "max": [
        -0.7459700107574463,
        0.6594780087471008,
        0.020239999517798424
      ],
      "min": [
        -1.063156008720398,
        0.42648500204086304,
        -0.6374279856681824
      ],
      "type": "VEC3"
    },
    {
      "bufferView": 2,
      "byteOffset": 134904,
      "componentType": 5126,
      "count": 132,
      "max": [
        0.9847882390022278,
        0.9617375731468201,
        0.8523061275482178
      ],
      "min": [
        -0.9999904632568359,
        -0.9329504370689392,
        -0.9962655305862427
      ],
      "type": "VEC3"
    },
    {
      "bufferView": 3,
      "byteOffset": 88880,
      "componentType": 5126,
      "count": 132,
      "max": [
        0.9518733024597168,
        0.8486701250076294,
        0.9519334435462952,
        1.0
      ],
      "min": [
        -0.9614142775535583,
        -0.789128839969635,
        -0.9981644153594971,
        1.0
      ],
      "type": "VEC4"
    },
    {
      "bufferView": 1,
      "byteOffset": 44440,
      "componentType": 5126,
      "count": 132,
      "max": [
        0.611702024936676,
        0.6629250049591064
      ],
      "min": [
        0.298911988735199,
        0.3275330066680908
      ],
      "type": "VEC2"
    },
    {
      "bufferView": 0,
      "byteOffset": 53688,
      "componentType": 5125,
      "count": 282,
      "type": "SCALAR"
    }
  ],
  "asset": {
    "extras": {
      "author": "Kieran (https://sketchfab.com/kieranmurray)",
      "license": "CC-BY-4.0 (http://creativecommons.org/licenses/by/4.0/)",
      "source": "https://sketchfab.com/3d-models/firepit-f7504ccc52c94b3aa0afabd219dc4c80",
      "title": "Firepit"
    },
    "generator": "Sketchfab-12.66.0",
    "version": "2.0"
  },
  "bufferViews": [
    {
      "buffer": 0,
      "byteLength": 54816,
      "name": "floatBufferViews",
      "target": 34963
    },
    {
      "buffer": 0,
      "byteLength": 45496,
      "byteOffset": 54816,
      "byteStride": 8,
      "name": "floatBufferViews",
      "target": 34962
    },
    {
      "buffer": 0,
      "byteLength": 136488,
      "byteOffset": 100312,
      "byteStride": 12,
      "name": "floatBufferViews",
      "target": 34962
    },
    {
      "buffer": 0,
      "byteLength": 90992,
      "byteOffset": 236800,
      "byteStride": 16,
      "name": "floatBufferViews",
      "target": 34962
    }
  ],
  "buffers": [
    {
      "byteLength": 327792,
      "uri": "scene.bin"
    }
  ],
  "images": [
    {
      "uri": "textures/lambert1_baseColor.jpeg"
    },
    {
      "uri": "textures/lambert1_metallicRoughness.png"
    },
    {
      "uri": "textures/lambert1_normal.png"
    }
  ],
  "materials": [
    {
      "doubleSided": true,
      "name": "lambert1",
      "normalTexture": {
        "index": 2
      },
      "pbrMetallicRoughness": {
        "baseColorTexture": {
          "index": 0
        },
        "metallicRoughnessTexture": {
          "index": 1
        }
      }
    }
  ],
  "meshes": [
    {
      "name": "defaultMaterial",
      "primitives": [
        {
          "attributes": {
            "NORMAL": 1,
            "POSITION": 0,
            "TANGENT": 2,
            "TEXCOORD_0": 3
          },
          "indices": 4,
          "material": 0,
          "mode": 4
        }
      ]
    },
    {
      "name": "defaultMaterial",
      "primitives": [
        {
          "attributes": {
            "NORMAL": 6,
            "POSITION": 5,
            "TANGENT": 7,
            "TEXCOORD_0": 8
          },
          "indices": 9,
          "material": 0,
          "mode": 4
        }
      ]
    },
    {
      "name": "defaultMaterial",
      "primitives": [
        {
          "attributes": {
            "NORMAL": 11,
            "POSITION": 10,
            "TANGENT": 12,
            "TEXCOORD_0": 13
          },
          "indices": 14,
          "material": 0,
          "mode": 4
        }
      ]
    },
    {
      "name": "defaultMaterial",
      "primitives": [
        {
          "attributes": {
            "NORMAL": 16,
            "POSITION": 15,
            "TANGENT": 17,
            "TEXCOORD_0": 18
          },
          "indices": 19,
          "material": 0,
          "mode": 4
        }
      ]
    },
    {
      "name": "defaultMaterial",
      "primitives": [
        {
          "attributes": {
            "NORMAL": 21,
            "POSITION": 20,
            "TANGENT": 22,
            "TEXCOORD_0": 23
          },
          "indices": 24,
          "material": 0,
          "mode": 4
        }
      ]
    },
    {
      "name": "defaultMaterial",
      "primitives": [
        {
          "attributes": {
            "NORMAL": 26,
            "POSITION": 25,
            "TANGENT": 27,
            "TEXCOORD_0": 28
          },
          "indices": 29,
          "material": 0,
          "mode": 4
        }
      ]
    },
    {
      "name": "defaultMaterial",
      "primitives": [
        {
          "attributes": {
            "NORMAL": 31,
            "POSITION": 30,
            "TANGENT": 32,
            "TEXCOORD_0": 33
          },
          "indices": 34,
          "material": 0,
          "mode": 4
        }
      ]
    },
    {
      "name": "defaultMaterial",
      "primitives": [
        {
          "attributes": {
            "NORMAL": 36,
            "POSITION": 35,
            "TANGENT": 37,
            "TEXCOORD_0": 38
          },
          "indices": 39,
          "material": 0,
          "mode": 4
        }
      ]
    },
    {
      "name": "defaultMaterial",
      "primitives": [
        {
          "attributes": {
            "NORMAL": 41,
            "POSITION": 40,
            "TANGENT": 42,
            "TEXCOORD_0": 43
          },
          "indices": 44,
          "material": 0,
          "mode": 4
        }
      ]
    },
    {
      "name": "defaultMaterial",
      "primitives": [
        {
          "attributes": {
            "NORMAL": 46,
            "POSITION": 45,
            "TANGENT": 47,
            "TEXCOORD_0": 48
          },
          "indices": 49,
          "material": 0,
          "mode": 4
        }
      ]
    },
    {
      "name": "defaultMaterial",
      "primitives": [
        {
          "attributes": {
            "NORMAL": 51,
            "POSITION": 50,
            "TANGENT": 52,
            "TEXCOORD_0": 53
          },
          "indices": 54,
          "material": 0,
          "mode": 4
        }
      ]
    },
    {
      "name": "defaultMaterial",
      "primitives": [
        {
          "attributes": {
            "NORMAL": 56,
            "POSITION": 55,
            "TANGENT": 57,
            "TEXCOORD_0": 58
          },
          "indices": 59,
          "material": 0,
          "mode": 4
        }
      ]
    },
    {
      "name": "defaultMaterial",
      "primitives": [
        {
          "attributes": {
            "NORMAL": 61,
            "POSITION": 60,
            "TANGENT": 62,
            "TEXCOORD_0": 63
          },
          "indices": 64,
          "material": 0,
          "mode": 4
        }
      ]
    },
    {
      "name": "defaultMaterial",
      "primitives": [
        {
          "attributes": {
            "NORMAL": 66,
            "POSITION": 65,
            "TANGENT": 67,
            "TEXCOORD_0": 68
          },
          "indices": 69,
          "material": 0,
          "mode": 4
        }
      ]
    },
    {
      "name": "defaultMaterial",
      "primitives": [
        {
          "attributes": {
            "NORMAL": 71,
            "POSITION": 70,
            "TANGENT": 72,
            "TEXCOORD_0": 73
          },
          "indices": 74,
          "material": 0,
          "mode": 4
        }
      ]
    },
    {
      "name": "defaultMaterial",
      "primitives": [
        {
          "attributes": {
            "NORMAL": 76,
            "POSITION": 75,
            "TANGENT": 77,
            "TEXCOORD_0": 78
          },
          "indices": 79,
          "material": 0,
          "mode": 4
        }
      ]
    },
    {
      "name": "defaultMaterial",
      "primitives": [
        {
          "attributes": {
            "NORMAL": 81,
            "POSITION": 80,
            "TANGENT": 82,
            "TEXCOORD_0": 83
          },
          "indices": 84,
          "material": 0,
          "mode": 4
        }
      ]
    },
    {
      "name": "defaultMaterial",
      "primitives": [
        {
          "attributes": {
            "NORMAL": 86,
            "POSITION": 85,
            "TANGENT": 87,
            "TEXCOORD_0": 88
          },
          "indices": 89,
          "material": 0,
          "mode": 4
        }
      ]
    },
    {
      "name": "defaultMaterial",
      "primitives": [
        {
          "attributes": {
            "NORMAL": 91,
            "POSITION": 90,
            "TANGENT": 92,
            "TEXCOORD_0": 93
          },
          "indices": 94,
          "material": 0,
          "mode": 4
        }
      ]
    },
    {
      "name": "defaultMaterial",
      "primitives": [
        {
          "attributes": {
            "NORMAL": 96,
            "POSITION": 95,
            "TANGENT": 97,
            "TEXCOORD_0": 98
          },
          "indices": 99,
          "material": 0,
          "mode": 4
        }
      ]
    },
    {
      "name": "defaultMaterial",
      "primitives": [
        {
          "attributes": {
            "NORMAL": 101,
            "POSITION": 100,
            "TANGENT": 102,
            "TEXCOORD_0": 103
          },
          "indices": 104,
          "material": 0,
          "mode": 4
        }
      ]
    },
    {
      "name": "defaultMaterial",
      "primitives": [
        {
          "attributes": {
            "NORMAL": 106,
            "POSITION": 105,
            "TANGENT": 107,
            "TEXCOORD_0": 108
          },
          "indices": 109,
          "material": 0,
          "mode": 4
        }
      ]
    },
    {
      "name": "defaultMaterial",
      "primitives": [
        {
          "attributes": {
            "NORMAL": 111,
            "POSITION": 110,
            "TANGENT": 112,
            "TEXCOORD_0": 113
          },
          "indices": 114,
          "material": 0,
          "mode": 4
        }
      ]
    },
    {
      "name": "defaultMaterial",
      "primitives": [
        {
          "attributes": {
            "NORMAL": 116,
            "POSITION": 115,
            "TANGENT": 117,
            "TEXCOORD_0": 118
          },
          "indices": 119,
          "material": 0,
          "mode": 4
        }
      ]
    },
    {
      "name": "defaultMaterial",
      "primitives": [
        {
          "attributes": {
            "NORMAL": 121,
            "POSITION": 120,
            "TANGENT": 122,
            "TEXCOORD_0": 123
          },
          "indices": 124,
          "material": 0,
          "mode": 4
        }
      ]
    },
    {
      "name": "defaultMaterial",
      "primitives": [
        {
          "attributes": {
            "NORMAL": 126,
            "POSITION": 125,
            "TANGENT": 127,
            "TEXCOORD_0": 128
          },
          "indices": 129,
          "material": 0,
          "mode": 4
        }
      ]
    },
    {
      "name": "defaultMaterial",
      "primitives": [
        {
          "attributes": {
            "NORMAL": 131,
            "POSITION": 130,
            "TANGENT": 132,
            "TEXCOORD_0": 133
          },
          "indices": 134,
          "material": 0,
          "mode": 4
        }
      ]
    }
  ],
  "nodes": [
    {
      "children": [
        1
      ],
      "matrix": [
        1.0,
        0.0,
        0.0,
        0.0,
        0.0,
        2.220446049250313e-16,
        -1.0,
        0.0,
        0.0,
        1.0,
        2.220446049250313e-16,
        0.0,
        0.0,
        0.0,
        0.0,
        1.0
      ],
      "name": "Sketchfab_model"
    },
    {
      "children": [
        2
      ],
      "matrix": [
        1.0,
        0.0,
        0.0,
        0.0,
        0.0,
        -4.371139006309477e-08,
        0.999999999999999,
        0.0,
        0.0,
        -0.999999999999999,
        -4.371139006309477e-08,
        0.0,
        0.0,
        0.0,
        0.0,
        1.0
      ],
      "name": "Collada visual scene group"
    },
    {
      "children": [
        3,
        5,
        7,
        44,
        51
      ],
      "name": "firepit"
    },
    {
      "children": [
        4
      ],
      "name": "base"
    },
    {
      "mesh": 0,
      "name": "defaultMaterial"
    },
    {
      "children": [
        6
      ],
      "name": "rocks"
    },
    {
      "mesh": 1,
      "name": "defaultMaterial"
    },
    {
      "children": [
        8,
        10,
        12,
        14,
        16,
        18,
        20,
        22,
        24,
        26,
        28,
        30,
        32,
        34,
        36,
        38,
        40,
        42
      ],
      "name": "leaves"
    },
    {
      "children": [
        9
      ],
      "name": "leaf_01"
    },
    {
      "mesh": 2,
      "name": "defaultMaterial"
    },
    {
      "children": [
        11
      ],
      "name": "leaf_02"
    },
    {
      "mesh": 3,
      "name": "defaultMaterial"
    },
    {
      "children": [
        13
      ],
      "name": "leaf_03"
    },
    {
      "mesh": 4,
      "name": "defaultMaterial"
    },
    {
      "children": [
        15
      ],
      "name": "leaf_04"
    },
    {
      "mesh": 5,
      "name": "defaultMaterial"
    },
    {
      "children": [
        17
      ],
      "name": "leaf_05"
    },
    {
      "mesh": 6,
      "name": "defaultMaterial"
    },
    {
      "children": [
        19
      ],
      "name": "leaf_06"
    },
    {
      "mesh": 7,
      "name": "defaultMaterial"
    },
    {
      "children": [
        21
      ],
      "name": "leaf_07"
    },
    {
      "mesh": 8,
      "name": "defaultMaterial"
    },
    {
      "children": [
        23
      ],
      "name": "leaf_08"
    },
    {
      "mesh": 9,
      "name": "defaultMaterial"
    },
    {
      "children": [
        25
      ],
      "name": "leaf_09"
    },
    {
      "mesh": 10,
      "name": "defaultMaterial"
    },
    {
      "children": [
        27
      ],
      "name": "leaf_10"
    },
    {
      "mesh": 11,
      "name": "defaultMaterial"
    },
    {
      "children": [
        29
      ],
      "name": "leaf_11"
    },
    {
      "mesh": 12,
      "name": "defaultMaterial"
    },
    {
      "children": [
        31
      ],
      "name": "leaf_12"
    },
    {
      "mesh": 13,
      "name": "defaultMaterial"
    },
    {
      "children": [
        33
      ],
      "name": "leaf_13"
    },
    {
      "mesh": 14,
      "name": "defaultMaterial"
    },
    {
      "children": [
        35
      ],
      "name": "leaf_14"
    },
    {
      "mesh": 15,
      "name": "defaultMaterial"
    },
    {
      "children": [
        37
      ],
      "name": "leaf_15"
    },
    {
      "mesh": 16,
      "name": "defaultMaterial"
    },
    {
      "children": [
        39
      ],
      "name": "leaf_16"
    },
    {
      "mesh": 17,
      "name": "defaultMaterial"
    },
    {
      "children": [
        41
      ],
      "name": "leaf_17"
    },
    {
      "mesh": 18,
      "name": "defaultMaterial"
    },
    {
      "children": [
        43
      ],
      "name": "leaf_18"
    },
    {
      "mesh": 19,
      "name": "defaultMaterial"
    },
    {
      "children": [
        45,
        47,
        49
      ],
      "name": "wood"
    },
    {
      "children": [
        46
      ],
      "name": "wood_01"
    },
    {
      "mesh": 20,
      "name": "defaultMaterial"
    },
    {
      "children": [
        48
      ],
      "name": "wood_02"
    },
    {
      "mesh": 21,
      "name": "defaultMaterial"
    },
    {
      "children": [
        50
      ],
      "name": "wood_03"
    },
    {
      "mesh": 22,
      "name": "defaultMaterial"
    },
    {
      "children": [
        52,
        54,
        56,
        58
      ],
      "name": "branches"
    },
    {
      "children": [
        53
      ],
      "name": "branch_04"
    },
    {
      "mesh": 23,
      "name": "defaultMaterial"
    },
    {
      "children": [
        55
      ],
      "name": "branch_03"
    },
    {
      "mesh": 24,
      "name": "defaultMaterial"
    },
    {
      "children": [
        57
      ],
      "name": "branch_02"
    },
    {
      "mesh": 25,
      "name": "defaultMaterial"
    },
    {
      "children": [
        59
      ],
      "name": "branch_01"
    },
    {
      "mesh": 26,
      "name": "defaultMaterial"
    }
  ],
  "samplers": [
    {
      "magFilter": 9729,
      "minFilter": 9987,
      "wrapS": 10497,
      "wrapT": 10497
    }
  ],
  "scene": 0,
  "scenes": [
    {
      "name": "Sketchfab_Scene",
      "nodes": [
        0
      ]
    }
  ],
  "textures": [
    {
      "sampler": 0,
      "source": 0
    },
    {
      "sampler": 0,
      "source": 1
    },
    {
      "sampler": 0,
      "source": 2
    }
  ]
}
