{
	"asset":{
		"generator":"Khronos glTF Blender I/O v5.1.18",
		"version":"2.0"
	},
	"scene":0,
	"scenes":[
		{
			"name":"Scene",
			"nodes":[
				4
			]
		}
	],
	"nodes":[
		{
			"mesh":0,
			"name":"Plane_green_0",
			"translation":[
				-0.13669997453689575,
				0.24934810400009155,
				-0.019877711310982704
			]
		},
		{
			"children":[
				0
			],
			"name":"Plane",
			"rotation":[
				-0.7071069478988647,
				0,
				0,
				0.7071066498756409
			],
			"scale":[
				43349.6953125,
				43349.6875,
				43349.6875
			],
			"translation":[
				5866.64599609375,
				923.504638671875,
				10840.8984375
			]
		},
		{
			"children":[
				1
			],
			"name":"RootNode"
		},
		{
			"children":[
				2
			],
			"name":"e7505ff6df084db39be0f32fd9e2ea57.fbx",
			"rotation":[
				0.70710688829422,
				0,
				0,
				0.7071066498756409
			],
			"scale":[
				0.009999999776482582,
				0.010000000707805157,
				0.010000000707805157
			]
		},
		{
			"children":[
				3
			],
			"name":"Sketchfab_model",
			"rotation":[
				-0.70710688829422,
				0,
				0,
				0.7071066498756409
			]
		}
	],
	"materials":[
		{
			"doubleSided":true,
			"name":"green",
			"pbrMetallicRoughness":{
				"baseColorFactor":[
					0.15034811198711395,
					0.032592348754405975,
					0.035850293934345245,
					1
				],
				"metallicFactor":0,
				"roughnessFactor":0.9705212116241455
			}
		}
	],
	"meshes":[
		{
			"name":"Plane_green_0",
			"primitives":[
				{
					"attributes":{
						"POSITION":0,
						"NORMAL":1,
						"TEXCOORD_0":2
					},
					"indices":3,
					"material":0
				}
			]
		}
	],
	"accessors":[
		{
			"bufferView":0,
			"componentType":5126,
			"count":158,
			"max":[
				0.916754961013794,
				0.9166667461395264,
				0.027542926371097565
			],
			"min":[
				-0.9166667461395264,
				-0.9166667461395264,
				-0.0034024459309875965
			],
			"type":"VEC3"
		},
		{
			"bufferView":1,
			"componentType":5126,
			"count":158,
			"type":"VEC3"
		},
		{
			"bufferView":2,
			"componentType":5126,
			"count":158,
			"type":"VEC2"
		},
		{
			"bufferView":3,
			"componentType":5123,
			"count":186,
			"type":"SCALAR"
		}
	],
	"bufferViews":[
		{
			"buffer":0,
			"byteLength":1896,
			"byteOffset":0,
			"target":34962
		},
		{
			"buffer":0,
			"byteLength":1896,
			"byteOffset":1896,
			"target":34962
		},
		{
			"buffer":0,
			"byteLength":1264,
			"byteOffset":3792,
			"target":34962
		},
		{
			"buffer":0,
			"byteLength":372,
			"byteOffset":5056,
			"target":34963
		}
	],
	"buffers":[
		{
			"byteLength":5428,
			"uri":"ground.bin"
		}
	]
}
