{
  "accessors": [
    {
      "bufferView": 2,
      "componentType": 5126,
      "count": 2337,
      "max": [
        0.9872310161590576,
        0.9872310161590576,
        1.6677095890045166
      ],
      "min": [
        -0.9872305393218994,
        -0.9872307181358337,
        -0.9975767135620117
      ],
      "type": "VEC3"
    },
    {
      "bufferView": 2,
      "byteOffset": 28044,
      "componentType": 5126,
      "count": 2337,
      "max": [
        0.9999992847442627,
        0.9997327327728271,
        0.9999881386756897
      ],
      "min": [
        -0.99992835521698,
        -0.999733567237854,
        -0.8465842604637146
      ],
      "type": "VEC3"
    },
    {
      "bufferView": 3,
      "componentType": 5126,
      "count": 2337,
      "max": [
        0.0,
        0.0,
        0.0,
        1.0
      ],
      "min": [
        0.0,
        0.0,
        0.0,
        1.0
      ],
      "type": "VEC4"
    },
    {
      "bufferView": 1,
      "componentType": 5126,
      "count": 2337,
      "max": [
        1.0000001192092896,
        1.0000001192092896
      ],
      "min": [
        0.0,
        0.0
      ],
      "type": "VEC2"
    },
    {
      "bufferView": 1,
      "byteOffset": 18696,
      "componentType": 5126,
      "count": 2337,
      "max": [
        1.0000001192092896,
        1.0000001192092896
      ],
      "min": [
        0.0,
        0.0
      ],
      "type": "VEC2"
    },
    {
      "bufferView": 2,
      "byteOffset": 56088,
      "componentType": 5126,
      "count": 2337,
      "max": [
        0.256838321685791,
        0.20546495914459229,
        0.2918502688407898
      ],
      "min": [
        -0.2777554988861084,
        -0.29872673749923706,
        -0.1926208734512329
      ],
      "type": "VEC3"
    },
    {
      "bufferView": 2,
      "byteOffset": 84132,
      "componentType": 5126,
      "count": 2337,
      "max": [
        1.5016300678253174,
        0.9223538041114807,
        0.7356905937194824
      ],
      "min": [
        -0.8022142052650452,
        -1.232438564300537,
        -1.11167311668396
      ],
      "type": "VEC3"
    },
    {
      "bufferView": 2,
      "byteOffset": 112176,
      "componentType": 5126,
      "count": 2337,
      "max": [
        0.431583046913147,
        0.330852210521698,
        0.4920571446418762
      ],
      "min": [
        -0.4517032504081726,
        -0.5217427611351013,
        -0.3920333981513977
      ],
      "type": "VEC3"
    },
    {
      "bufferView": 2,
      "byteOffset": 140220,
      "componentType": 5126,
      "count": 2337,
      "max": [
        1.7061972618103027,
        1.0032157897949219,
        0.9654967188835144
      ],
      "min": [
        -0.9197367429733276,
        -1.2406361103057861,
        -1.196162462234497
      ],
      "type": "VEC3"
    },
    {
      "bufferView": 2,
      "byteOffset": 168264,
      "componentType": 5126,
      "count": 2337,
      "max": [
        0.2966170907020569,
        0.24844682216644287,
        0.3103007674217224
      ],
      "min": [
        -0.1557047963142395,
        -0.2677159011363983,
        -0.2309439480304718
      ],
      "type": "VEC3"
    },
    {
      "bufferView": 2,
      "byteOffset": 196308,
      "componentType": 5126,
      "count": 2337,
      "max": [
        1.4240740537643433,
        0.9761607050895691,
        0.7805498838424683
      ],
      "min": [
        -0.8467596769332886,
        -1.1951398849487305,
        -1.12019681930542
      ],
      "type": "VEC3"
    },
    {
      "bufferView": 2,
      "byteOffset": 224352,
      "componentType": 5126,
      "count": 2337,
      "max": [
        0.2961021065711975,
        0.24366754293441772,
        0.3287023901939392
      ],
      "min": [
        -0.1441527009010315,
        -0.21961206197738647,
        -0.24593406915664673
      ],
      "type": "VEC3"
    },
    {
      "bufferView": 2,
      "byteOffset": 252396,
      "componentType": 5126,
      "count": 2337,
      "max": [
        1.257460355758667,
        0.9597775936126709,
        0.9932562708854675
      ],
      "min": [
        -0.7813206911087036,
        -1.2359205484390259,
        -1.0828659534454346
      ],
      "type": "VEC3"
    },
    {
      "bufferView": 2,
      "byteOffset": 280440,
      "componentType": 5126,
      "count": 2337,
      "max": [
        0.27755433320999146,
        0.22242248058319092,
        0.3469310998916626
      ],
      "min": [
        -0.16694161295890808,
        -0.18506747484207153,
        -0.22125238180160522
      ],
      "type": "VEC3"
    },
    {
      "bufferView": 2,
      "byteOffset": 308484,
      "componentType": 5126,
      "count": 2337,
      "max": [
        1.0299420356750488,
        0.9023891091346741,
        1.0559000968933105
      ],
      "min": [
        -0.8720917701721191,
        -1.1648794412612915,
        -1.0540558099746704
      ],
      "type": "VEC3"
    },
    {
      "bufferView": 2,
      "byteOffset": 336528,
      "componentType": 5126,
      "count": 2337,
      "max": [
        0.25430113077163696,
        0.21504688262939453,
        0.29236841201782227
      ],
      "min": [
        -0.1538301706314087,
        -0.17429032921791077,
        -0.22060787677764893
      ],
      "type": "VEC3"
    },
    {
      "bufferView": 2,
      "byteOffset": 364572,
      "componentType": 5126,
      "count": 2337,
      "max": [
        1.0205928087234497,
        0.8870131373405457,
        1.1909935474395752
      ],
      "min": [
        -0.8993988037109375,
        -1.1298105716705322,
        -1.0216305255889893
      ],
      "type": "VEC3"
    },
    {
      "bufferView": 2,
      "byteOffset": 392616,
      "componentType": 5126,
      "count": 2337,
      "max": [
        0.2179202437400818,
        0.18321990966796875,
        0.2364259958267212
      ],
      "min": [
        -0.17423507571220398,
        -0.2419116497039795,
        -0.21185678243637085
      ],
      "type": "VEC3"
    },
    {
      "bufferView": 2,
      "byteOffset": 420660,
      "componentType": 5126,
      "count": 2337,
      "max": [
        1.0047709941864014,
        0.9211170077323914,
        1.033002495765686
      ],
      "min": [
        -0.8306309580802917,
        -1.0967607498168945,
        -1.0244380235671997
      ],
      "type": "VEC3"
    },
    {
      "bufferView": 2,
      "byteOffset": 448704,
      "componentType": 5126,
      "count": 2337,
      "max": [
        0.2529289126396179,
        0.16449040174484253,
        0.2344803810119629
      ],
      "min": [
        -0.17919424176216125,
        -0.29107707738876343,
        -0.2531871795654297
      ],
      "type": "VEC3"
    },
    {
      "bufferView": 2,
      "byteOffset": 476748,
      "componentType": 5126,
      "count": 2337,
      "max": [
        1.0220071077346802,
        0.932930052280426,
        1.3212194442749023
      ],
      "min": [
        -0.8259678483009338,
        -1.0956562757492065,
        -1.0472939014434814
      ],
      "type": "VEC3"
    },
    {
      "bufferView": 2,
      "byteOffset": 504792,
      "componentType": 5126,
      "count": 2337,
      "max": [
        0.25871264934539795,
        0.13651728630065918,
        0.21258676052093506
      ],
      "min": [
        -0.1979130506515503,
        -0.2972896695137024,
        -0.2321184277534485
      ],
      "type": "VEC3"
    },
    {
      "bufferView": 2,
      "byteOffset": 532836,
      "componentType": 5126,
      "count": 2337,
      "max": [
        1.0618504285812378,
        0.9532220363616943,
        1.16728675365448
      ],
      "min": [
        -0.9969353675842285,
        -1.0697814226150513,
        -1.0431039333343506
      ],
      "type": "VEC3"
    },
    {
      "bufferView": 2,
      "byteOffset": 560880,
      "componentType": 5126,
      "count": 2337,
      "max": [
        0.28398561477661133,
        0.1257224678993225,
        0.15129590034484863
      ],
      "min": [
        -0.21654164791107178,
        -0.33537739515304565,
        -0.228584885597229
      ],
      "type": "VEC3"
    },
    {
      "bufferView": 2,
      "byteOffset": 588924,
      "componentType": 5126,
      "count": 2337,
      "max": [
        1.004227638244629,
        0.9039274454116821,
        0.978320837020874
      ],
      "min": [
        -0.9827333092689514,
        -1.0735150575637817,
        -1.0631885528564453
      ],
      "type": "VEC3"
    },
    {
      "bufferView": 2,
      "byteOffset": 616968,
      "componentType": 5126,
      "count": 2337,
      "max": [
        0.29597848653793335,
        0.12535542249679565,
        0.1476116180419922
      ],
      "min": [
        -0.22679734230041504,
        -0.3500915467739105,
        -0.19446349143981934
      ],
      "type": "VEC3"
    },
    {
      "bufferView": 2,
      "byteOffset": 645012,
      "componentType": 5126,
      "count": 2337,
      "max": [
        1.8639121055603027,
        0.8933896422386169,
        0.9466201066970825
      ],
      "min": [
        -0.8863987326622009,
        -1.9094605445861816,
        -1.0746018886566162
      ],
      "type": "VEC3"
    },
    {
      "bufferView": 2,
      "byteOffset": 673056,
      "componentType": 5126,
      "count": 2337,
      "max": [
        0.2864656448364258,
        0.12390691041946411,
        0.16818851232528687
      ],
      "min": [
        -0.2261418104171753,
        -0.3426870107650757,
        -0.20544981956481934
      ],
      "type": "VEC3"
    },
    {
      "bufferView": 2,
      "byteOffset": 701100,
      "componentType": 5126,
      "count": 2337,
      "max": [
        1.002180576324463,
        0.8527514338493347,
        0.8772341012954712
      ],
      "min": [
        -0.8613996505737305,
        -1.3332302570343018,
        -1.0636320114135742
      ],
      "type": "VEC3"
    },
    {
      "bufferView": 2,
      "byteOffset": 729144,
      "componentType": 5126,
      "count": 2337,
      "max": [
        0.2657846212387085,
        0.14271998405456543,
        0.1994432657957077
      ],
      "min": [
        -0.21664071083068848,
        -0.3251239061355591,
        -0.22016888856887817
      ],
      "type": "VEC3"
    },
    {
      "bufferView": 2,
      "byteOffset": 757188,
      "componentType": 5126,
      "count": 2337,
      "max": [
        1.2330751419067383,
        0.8537941575050354,
        0.775506854057312
      ],
      "min": [
        -0.8330618143081665,
        -1.3443838357925415,
        -1.0426689386367798
      ],
      "type": "VEC3"
    },
    {
      "bufferView": 2,
      "byteOffset": 785232,
      "componentType": 5126,
      "count": 2337,
      "max": [
        0.2477744221687317,
        0.16374173760414124,
        0.23869895935058594
      ],
      "min": [
        -0.20322808623313904,
        -0.3039488196372986,
        -0.25840604305267334
      ],
      "type": "VEC3"
    },
    {
      "bufferView": 2,
      "byteOffset": 813276,
      "componentType": 5126,
      "count": 2337,
      "max": [
        1.5064942836761475,
        0.9429184794425964,
        0.6886677145957947
      ],
      "min": [
        -0.7709648609161377,
        -1.7108676433563232,
        -1.0304290056228638
      ],
      "type": "VEC3"
    },
    {
      "bufferView": 2,
      "byteOffset": 841320,
      "componentType": 5126,
      "count": 2337,
      "max": [
        0.2390461564064026,
        0.1843854784965515,
        0.2772662043571472
      ],
      "min": [
        -0.21032875776290894,
        -0.28099286556243896,
        -0.278667688369751
      ],
      "type": "VEC3"
    },
    {
      "bufferView": 2,
      "byteOffset": 869364,
      "componentType": 5126,
      "count": 2337,
      "max": [
        1.3267635107040405,
        0.8646904230117798,
        0.7578567266464233
      ],
      "min": [
        -0.8081006407737732,
        -1.4789819717407227,
        -1.0384774208068848
      ],
      "type": "VEC3"
    },
    {
      "bufferView": 2,
      "byteOffset": 897408,
      "componentType": 5126,
      "count": 2337,
      "max": [
        0.22274279594421387,
        0.17704129219055176,
        0.3080372214317322
      ],
      "min": [
        -0.219621479511261,
        -0.34132835268974304,
        -0.29068922996520996
      ],
      "type": "VEC3"
    },
    {
      "bufferView": 2,
      "byteOffset": 925452,
      "componentType": 5126,
      "count": 2337,
      "max": [
        1.2148572206497192,
        0.8623638153076172,
        0.6204457879066467
      ],
      "min": [
        -0.8931347131729126,
        -1.4739984273910522,
        -1.0345618724822998
      ],
      "type": "VEC3"
    },
    {
      "bufferView": 2,
      "byteOffset": 953496,
      "componentType": 5126,
      "count": 2337,
      "max": [
        0.20063138008117676,
        0.15649151802062988,
        0.3068689703941345
      ],
      "min": [
        -0.20654767751693726,
        -0.3497009575366974,
        -0.26308000087738037
      ],
      "type": "VEC3"
    },
    {
      "bufferView": 2,
      "byteOffset": 981540,
      "componentType": 5126,
      "count": 2337,
      "max": [
        1.3532111644744873,
        0.8730123043060303,
        0.8075641989707947
      ],
      "min": [
        -1.0156608819961548,
        -1.1669808626174927,
        -1.0592966079711914
      ],
      "type": "VEC3"
    },
    {
      "bufferView": 2,
      "byteOffset": 1009584,
      "componentType": 5126,
      "count": 2337,
      "max": [
        0.18290460109710693,
        0.15163421630859375,
        0.2942056655883789
      ],
      "min": [
        -0.21832619607448578,
        -0.3216690123081207,
        -0.22704878449440002
      ],
      "type": "VEC3"
    },
    {
      "bufferView": 2,
      "byteOffset": 1037628,
      "componentType": 5126,
      "count": 2337,
      "max": [
        1.376490592956543,
        0.848190188407898,
        0.9502055644989014
      ],
      "min": [
        -0.8645970225334167,
        -1.1516259908676147,
        -1.067291021347046
      ],
      "type": "VEC3"
    },
    {
      "bufferView": 2,
      "byteOffset": 1065672,
      "componentType": 5126,
      "count": 2337,
      "max": [
        0.2761674225330353,
        0.14857494831085205,
        0.2624480724334717
      ],
      "min": [
        -0.21792547404766083,
        -0.29525864124298096,
        -0.18600642681121826
      ],
      "type": "VEC3"
    },
    {
      "bufferView": 2,
      "byteOffset": 1093716,
      "componentType": 5126,
      "count": 2337,
      "max": [
        1.3550564050674438,
        0.8838894367218018,
        1.1048463582992554
      ],
      "min": [
        -0.6911377310752869,
        -1.1411081552505493,
        -1.0645735263824463
      ],
      "type": "VEC3"
    },
    {
      "bufferView": 2,
      "byteOffset": 1121760,
      "componentType": 5126,
      "count": 2337,
      "max": [
        0.26290759444236755,
        0.13382160663604736,
        0.17740070819854736
      ],
      "min": [
        -0.21439823508262634,
        -0.28649306297302246,
        -0.14894884824752808
      ],
      "type": "VEC3"
    },
    {
      "bufferView": 2,
      "byteOffset": 1149804,
      "componentType": 5126,
      "count": 2337,
      "max": [
        1.31583833694458,
        0.9157729148864746,
        1.1220650672912598
      ],
      "min": [
        -0.8508117198944092,
        -1.1862454414367676,
        -1.0546696186065674
      ],
      "type": "VEC3"
    },
    {
      "bufferView": 2,
      "byteOffset": 1177848,
      "componentType": 5126,
      "count": 2337,
      "max": [
        0.17978435754776,
        0.124569833278656,
        0.14211833477020264
      ],
      "min": [
        -0.19682371616363525,
        -0.2685549259185791,
        -0.15892240405082703
      ],
      "type": "VEC3"
    },
    {
      "bufferView": 2,
      "byteOffset": 1205892,
      "componentType": 5126,
      "count": 2337,
      "max": [
        1.2995613813400269,
        0.9466979503631592,
        1.022344708442688
      ],
      "min": [
        -0.8467935919761658,
        -1.1368423700332642,
        -1.027645230293274
      ],
      "type": "VEC3"
    },
    {
      "bufferView": 2,
      "byteOffset": 1233936,
      "componentType": 5126,
      "count": 2337,
      "max": [
        0.14048433303833008,
        0.1129189133644104,
        0.18021774291992188
      ],
      "min": [
        -0.22780176997184753,
        -0.2600613236427307,
        -0.18989822268486023
      ],
      "type": "VEC3"
    },
    {
      "bufferView": 2,
      "byteOffset": 1261980,
      "componentType": 5126,
      "count": 2337,
      "max": [
        1.5224546194076538,
        0.9534972310066223,
        0.9366011023521423
      ],
      "min": [
        -0.8510780334472656,
        -1.0322296619415283,
        -1.0602970123291016
      ],
      "type": "VEC3"
    },
    {
      "bufferView": 2,
      "byteOffset": 1290024,
      "componentType": 5126,
      "count": 2337,
      "max": [
        0.13054406642913818,
        0.15714986622333527,
        0.15763449668884277
      ],
      "min": [
        -0.25962376594543457,
        -0.24327582120895386,
        -0.22195285558700562
      ],
      "type": "VEC3"
    },
    {
      "bufferView": 2,
      "byteOffset": 1318068,
      "componentType": 5126,
      "count": 2337,
      "max": [
        1.370571255683899,
        1.016937017440796,
        0.812094509601593
      ],
      "min": [
        -0.7575245499610901,
        -1.1362323760986328,
        -1.0813480615615845
      ],
      "type": "VEC3"
    },
    {
      "bufferView": 2,
      "byteOffset": 1346112,
      "componentType": 5126,
      "count": 2337,
      "max": [
        0.15240764617919922,
        0.21313899755477905,
        0.17494535446166992
      ],
      "min": [
        -0.29029402136802673,
        -0.21992748975753784,
        -0.23723989725112915
      ],
      "type": "VEC3"
    },
    {
      "bufferView": 2,
      "byteOffset": 1374156,
      "componentType": 5126,
      "count": 2337,
      "max": [
        1.186328649520874,
        1.139075517654419,
        0.6061142683029175
      ],
      "min": [
        -0.8587603569030762,
        -1.3776943683624268,
        -1.0846614837646484
      ],
      "type": "VEC3"
    },
    {
      "bufferView": 2,
      "byteOffset": 1402200,
      "componentType": 5126,
      "count": 2337,
      "max": [
        0.12632712721824646,
        0.2389596700668335,
        0.17923545837402344
      ],
      "min": [
        -0.26668673753738403,
        -0.20399051904678345,
        -0.2951684296131134
      ],
      "type": "VEC3"
    },
    {
      "bufferView": 2,
      "byteOffset": 1430244,
      "componentType": 5126,
      "count": 2337,
      "max": [
        1.1364812850952148,
        1.0629017353057861,
        0.8780307769775391
      ],
      "min": [
        -0.908983588218689,
        -1.3459198474884033,
        -1.0713633298873901
      ],
      "type": "VEC3"
    },
    {
      "bufferView": 2,
      "byteOffset": 1458288,
      "componentType": 5126,
      "count": 2337,
      "max": [
        0.16521179676055908,
        0.27184683084487915,
        0.1359041929244995
      ],
      "min": [
        -0.2548077404499054,
        -0.202061727643013,
        -0.3135142922401428
      ],
      "type": "VEC3"
    },
    {
      "bufferView": 2,
      "byteOffset": 1486332,
      "componentType": 5126,
      "count": 2337,
      "max": [
        1.3423210382461548,
        1.0387578010559082,
        0.9863154292106628
      ],
      "min": [
        -0.9091612100601196,
        -1.5562551021575928,
        -1.036221981048584
      ],
      "type": "VEC3"
    },
    {
      "bufferView": 2,
      "byteOffset": 1514376,
      "componentType": 5126,
      "count": 2337,
      "max": [
        0.21060217916965485,
        0.27176785469055176,
        0.11933432519435883
      ],
      "min": [
        -0.23893141746520996,
        -0.2539539039134979,
        -0.2669270932674408
      ],
      "type": "VEC3"
    },
    {
      "bufferView": 2,
      "byteOffset": 1542420,
      "componentType": 5126,
      "count": 2337,
      "max": [
        1.4487011432647705,
        1.0369367599487305,
        1.002610206604004
      ],
      "min": [
        -1.084527850151062,
        -1.8815007209777832,
        -1.0151772499084473
      ],
      "type": "VEC3"
    },
    {
      "bufferView": 2,
      "byteOffset": 1570464,
      "componentType": 5126,
      "count": 2337,
      "max": [
        0.23059216141700745,
        0.2790931463241577,
        0.1430453509092331
      ],
      "min": [
        -0.20613056421279907,
        -0.2369931936264038,
        -0.2754102051258087
      ],
      "type": "VEC3"
    },
    {
      "bufferView": 2,
      "byteOffset": 1598508,
      "componentType": 5126,
      "count": 2337,
      "max": [
        1.4580824375152588,
        1.021849513053894,
        0.996257483959198
      ],
      "min": [
        -1.1220204830169678,
        -1.777840495109558,
        -1.011983036994934
      ],
      "type": "VEC3"
    },
    {
      "bufferView": 2,
      "byteOffset": 1626552,
      "componentType": 5126,
      "count": 2337,
      "max": [
        0.2879433035850525,
        0.26000338792800903,
        0.1747458577156067
      ],
      "min": [
        -0.20017129182815552,
        -0.22746185958385468,
        -0.28493732213974
      ],
      "type": "VEC3"
    },
    {
      "bufferView": 2,
      "byteOffset": 1654596,
      "componentType": 5126,
      "count": 2337,
      "max": [
        1.422797679901123,
        0.8664162755012512,
        0.9550759792327881
      ],
      "min": [
        -0.8930879831314087,
        -1.6493360996246338,
        -1.0348023176193237
      ],
      "type": "VEC3"
    },
    {
      "bufferView": 2,
      "byteOffset": 1682640,
      "componentType": 5126,
      "count": 2337,
      "max": [
        0.2861999571323395,
        0.2514406442642212,
        0.18861526250839233
      ],
      "min": [
        -0.20280349254608154,
        -0.2250661849975586,
        -0.27555787563323975
      ],
      "type": "VEC3"
    },
    {
      "bufferView": 2,
      "byteOffset": 1710684,
      "componentType": 5126,
      "count": 2337,
      "max": [
        1.389449954032898,
        0.8325638771057129,
        1.077553153038025
      ],
      "min": [
        -1.0678417682647705,
        -1.854703664779663,
        -1.0287138223648071
      ],
      "type": "VEC3"
    },
    {
      "bufferView": 2,
      "byteOffset": 1738728,
      "componentType": 5126,
      "count": 2337,
      "max": [
        0.2995947003364563,
        0.22308427095413208,
        0.20074763894081116
      ],
      "min": [
        -0.20023292303085327,
        -0.23973676562309265,
        -0.25269752740859985
      ],
      "type": "VEC3"
    },
    {
      "bufferView": 2,
      "byteOffset": 1766772,
      "componentType": 5126,
      "count": 2337,
      "max": [
        1.9664244651794434,
        1.2012598514556885,
        1.2147072553634644
      ],
      "min": [
        -1.813633918762207,
        -1.4166550636291504,
        -1.0249688625335693
      ],
      "type": "VEC3"
    },
    {
      "bufferView": 2,
      "byteOffset": 1794816,
      "componentType": 5126,
      "count": 2337,
      "max": [
        0.2621185779571533,
        0.22214768826961517,
        0.19101423025131226
      ],
      "min": [
        -0.21228736639022827,
        -0.267752081155777,
        -0.2572210431098938
      ],
      "type": "VEC3"
    },
    {
      "bufferView": 2,
      "byteOffset": 1822860,
      "componentType": 5126,
      "count": 2337,
      "max": [
        1.3535693883895874,
        1.5961625576019287,
        1.1774777173995972
      ],
      "min": [
        -1.8899792432785034,
        -1.3771454095840454,
        -1.028495192527771
      ],
      "type": "VEC3"
    },
    {
      "bufferView": 2,
      "byteOffset": 1850904,
      "componentType": 5126,
      "count": 2337,
      "max": [
        0.2446197271347046,
        0.1916448026895523,
        0.1734781265258789
      ],
      "min": [
        -0.19745707511901855,
        -0.27326637506484985,
        -0.25202226638793945
      ],
      "type": "VEC3"
    },
    {
      "bufferView": 2,
      "byteOffset": 1878948,
      "componentType": 5126,
      "count": 2337,
      "max": [
        1.515613317489624,
        1.4074517488479614,
        0.9854646325111389
      ],
      "min": [
        -1.6756722927093506,
        -1.3781342506408691,
        -1.025103211402893
      ],
      "type": "VEC3"
    },
    {
      "bufferView": 2,
      "byteOffset": 1906992,
      "componentType": 5126,
      "count": 2337,
      "max": [
        0.22205930948257446,
        0.14488482475280762,
        0.19278061389923096
      ],
      "min": [
        -0.18637949228286743,
        -0.25389206409454346,
        -0.21858811378479004
      ],
      "type": "VEC3"
    },
    {
      "bufferView": 2,
      "byteOffset": 1935036,
      "componentType": 5126,
      "count": 2337,
      "max": [
        1.4033467769622803,
        0.8864348530769348,
        0.9635456800460815
      ],
      "min": [
        -0.8994522094726563,
        -1.952933430671692,
        -1.0098320245742798
      ],
      "type": "VEC3"
    },
    {
      "bufferView": 2,
      "byteOffset": 1963080,
      "componentType": 5126,
      "count": 2337,
      "max": [
        0.21316766738891602,
        0.1376626342535019,
        0.1999327540397644
      ],
      "min": [
        -0.16933804750442505,
        -0.24399709701538086,
        -0.19115085899829865
      ],
      "type": "VEC3"
    },
    {
      "bufferView": 2,
      "byteOffset": 1991124,
      "componentType": 5126,
      "count": 2337,
      "max": [
        1.1020188331604004,
        1.5204997062683105,
        1.0161762237548828
      ],
      "min": [
        -1.3387795686721802,
        -1.1197065114974976,
        -1.0022159814834595
      ],
      "type": "VEC3"
    },
    {
      "bufferView": 2,
      "byteOffset": 2019168,
      "componentType": 5126,
      "count": 2337,
      "max": [
        0.2029789388179779,
        0.16828292608261108,
        0.18680089712142944
      ],
      "min": [
        -0.18510648608207703,
        -0.22875046730041504,
        -0.22151592373847961
      ],
      "type": "VEC3"
    },
    {
      "bufferView": 2,
      "byteOffset": 2047212,
      "componentType": 5126,
      "count": 2337,
      "max": [
        1.6352726221084595,
        0.8222877383232117,
        0.836088240146637
      ],
      "min": [
        -0.9027708172798157,
        -1.810243010520935,
        -1.0000313520431519
      ],
      "type": "VEC3"
    },
    {
      "bufferView": 2,
      "byteOffset": 2075256,
      "componentType": 5126,
      "count": 2337,
      "max": [
        0.19374096393585205,
        0.15066923201084137,
        0.22044217586517334
      ],
      "min": [
        -0.21099048852920532,
        -0.21620655059814453,
        -0.25220054388046265
      ],
      "type": "VEC3"
    },
    {
      "bufferView": 2,
      "byteOffset": 2103300,
      "componentType": 5126,
      "count": 2337,
      "max": [
        1.2910010814666748,
        0.7011477947235107,
        0.8786742091178894
      ],
      "min": [
        -0.852029025554657,
        -1.667358636856079,
        -0.9909175038337708
      ],
      "type": "VEC3"
    },
    {
      "bufferView": 2,
      "byteOffset": 2131344,
      "componentType": 5126,
      "count": 2337,
      "max": [
        0.18956643342971802,
        0.15383560955524445,
        0.24606341123580933
      ],
      "min": [
        -0.19790798425674438,
        -0.18465298414230347,
        -0.2833160161972046
      ],
      "type": "VEC3"
    },
    {
      "bufferView": 2,
      "byteOffset": 2159388,
      "componentType": 5126,
      "count": 2337,
      "max": [
        1.121629238128662,
        0.7611364722251892,
        0.8328537940979004
      ],
      "min": [
        -0.9003110527992249,
        -1.4202066659927368,
        -0.9957894086837769
      ],
      "type": "VEC3"
    },
    {
      "bufferView": 2,
      "byteOffset": 2187432,
      "componentType": 5126,
      "count": 2337,
      "max": [
        0.1709999442100525,
        0.16308945417404175,
        0.23955786228179932
      ],
      "min": [
        -0.16266381740570068,
        -0.14556246995925903,
        -0.30313923954963684
      ],
      "type": "VEC3"
    },
    {
      "bufferView": 2,
      "byteOffset": 2215476,
      "componentType": 5126,
      "count": 2337,
      "max": [
        1.0502184629440308,
        0.9182760119438171,
        0.7477508783340454
      ],
      "min": [
        -0.8763028383255005,
        -1.3099465370178223,
        -0.9937516450881958
      ],
      "type": "VEC3"
    },
    {
      "bufferView": 2,
      "byteOffset": 2243520,
      "componentType": 5126,
      "count": 2337,
      "max": [
        0.1750788688659668,
        0.15866811573505402,
        0.20498859882354736
      ],
      "min": [
        -0.18560174107551575,
        -0.1757563054561615,
        -0.26754409074783325
      ],
      "type": "VEC3"
    },
    {
      "bufferView": 2,
      "byteOffset": 2271564,
      "componentType": 5126,
      "count": 2337,
      "max": [
        1.1242632865905762,
        0.8321565985679626,
        0.5984998345375061
      ],
      "min": [
        -0.8292770385742188,
        -1.1787503957748413,
        -0.9820960760116577
      ],
      "type": "VEC3"
    },
    {
      "bufferView": 2,
      "byteOffset": 2299608,
      "componentType": 5126,
      "count": 2337,
      "max": [
        0.17208105325698853,
        0.19923362135887146,
        0.16636383533477783
      ],
      "min": [
        -0.18010234832763672,
        -0.1555577516555786,
        -0.23267054557800293
      ],
      "type": "VEC3"
    },
    {
      "bufferView": 2,
      "byteOffset": 2327652,
      "componentType": 5126,
      "count": 2337,
      "max": [
        1.0501940250396729,
        0.9334598779678345,
        0.8238283395767212
      ],
      "min": [
        -0.8322676420211792,
        -1.2168793678283691,
        -1.0240719318389893
      ],
      "type": "VEC3"
    },
    {
      "bufferView": 2,
      "byteOffset": 2355696,
      "componentType": 5126,
      "count": 2337,
      "max": [
        0.15548241138458252,
        0.23954707384109497,
        0.12333214282989502
      ],
      "min": [
        -0.20227468013763428,
        -0.1334766149520874,
        -0.22177541255950928
      ],
      "type": "VEC3"
    },
    {
      "bufferView": 2,
      "byteOffset": 2383740,
      "componentType": 5126,
      "count": 2337,
      "max": [
        1.0772724151611328,
        1.650139570236206,
        1.1173312664031982
      ],
      "min": [
        -1.0972399711608887,
        -1.1785738468170166,
        -1.0130934715270996
      ],
      "type": "VEC3"
    },
    {
      "bufferView": 2,
      "byteOffset": 2411784,
      "componentType": 5126,
      "count": 2337,
      "max": [
        0.2306128591299057,
        0.28181421756744385,
        0.13466876745224
      ],
      "min": [
        -0.2505219280719757,
        -0.23779448866844177,
        -0.22725176811218262
      ],
      "type": "VEC3"
    },
    {
      "bufferView": 2,
      "byteOffset": 2439828,
      "componentType": 5126,
      "count": 2337,
      "max": [
        1.804563045501709,
        1.5287545919418335,
        1.1662709712982178
      ],
      "min": [
        -1.9682681560516357,
        -1.2478652000427246,
        -1.036545753479004
      ],
      "type": "VEC3"
    },
    {
      "bufferView": 2,
      "byteOffset": 2467872,
      "componentType": 5126,
      "count": 2337,
      "max": [
        0.2289067506790161,
        0.2882978916168213,
        0.1481913924217224
      ],
      "min": [
        -0.22860509157180786,
        -0.208113431930542,
        -0.22490882873535156
      ],
      "type": "VEC3"
    },
    {
      "bufferView": 2,
      "byteOffset": 2495916,
      "componentType": 5126,
      "count": 2337,
      "max": [
        1.9269866943359375,
        1.7484718561172485,
        1.230323314666748
      ],
      "min": [
        -1.8965048789978027,
        -1.4785027503967285,
        -1.0280259847640991
      ],
      "type": "VEC3"
    },
    {
      "bufferView": 2,
      "byteOffset": 2523960,
      "componentType": 5126,
      "count": 2337,
      "max": [
        0.278080552816391,
        0.30913907289505005,
        0.13634127378463745
      ],
      "min": [
        -0.26724696159362793,
        -0.23507413268089294,
        -0.19174718856811523
      ],
      "type": "VEC3"
    },
    {
      "bufferView": 2,
      "byteOffset": 2552004,
      "componentType": 5126,
      "count": 2337,
      "max": [
        1.8215646743774414,
        1.6663678884506226,
        1.2466917037963867
      ],
      "min": [
        -1.9432263374328613,
        -1.6681108474731445,
        -1.001338243484497
      ],
      "type": "VEC3"
    },
    {
      "bufferView": 2,
      "byteOffset": 2580048,
      "componentType": 5126,
      "count": 2337,
      "max": [
        0.17175553739070892,
        0.25682443380355835,
        0.12754803895950317
      ],
      "min": [
        -0.21690243482589722,
        -0.1859305500984192,
        -0.19476759433746338
      ],
      "type": "VEC3"
    },
    {
      "bufferView": 2,
      "byteOffset": 2608092,
      "componentType": 5126,
      "count": 2337,
      "max": [
        1.4877102375030518,
        1.2372477054595947,
        1.0649126768112183
      ],
      "min": [
        -1.8008166551589966,
        -1.2625296115875244,
        -1.001539945602417
      ],
      "type": "VEC3"
    },
    {
      "bufferView": 2,
      "byteOffset": 2636136,
      "componentType": 5126,
      "count": 2337,
      "max": [
        0.1394968032836914,
        0.26409322023391724,
        0.1498388648033142
      ],
      "min": [
        -0.2546180486679077,
        -0.1820523738861084,
        -0.19523680210113525
      ],
      "type": "VEC3"
    },
    {
      "bufferView": 2,
      "byteOffset": 2664180,
      "componentType": 5126,
      "count": 2337,
      "max": [
        1.1850395202636719,
        0.8847067356109619,
        0.9930956959724426
      ],
      "min": [
        -1.2290220260620117,
        -1.6364998817443848,
        -1.0162193775177002
      ],
      "type": "VEC3"
    },
    {
      "bufferView": 2,
      "byteOffset": 2692224,
      "componentType": 5126,
      "count": 2337,
      "max": [
        0.146814227104187,
        0.2726244330406189,
        0.13597285747528076
      ],
      "min": [
        -0.2775026559829712,
        -0.1638752967119217,
        -0.19960510730743408
      ],
      "type": "VEC3"
    },
    {
      "bufferView": 2,
      "byteOffset": 2720268,
      "componentType": 5126,
      "count": 2337,
      "max": [
        1.0540776252746582,
        0.9506115913391113,
        1.1868042945861816
      ],
      "min": [
        -0.8441658020019531,
        -1.0218532085418701,
        -0.9895089268684387
      ],
      "type": "VEC3"
    },
    {
      "bufferView": 2,
      "byteOffset": 2748312,
      "componentType": 5126,
      "count": 2337,
      "max": [
        0.14414894580841064,
        0.2784622311592102,
        0.1462727189064026
      ],
      "min": [
        -0.31428468227386475,
        -0.2345426082611084,
        -0.19484221935272217
      ],
      "type": "VEC3"
    },
    {
      "bufferView": 2,
      "byteOffset": 2776356,
      "componentType": 5126,
      "count": 2337,
      "max": [
        1.03043794631958,
        0.9605245590209961,
        1.0904289484024048
      ],
      "min": [
        -0.8785937428474426,
        -1.051058053970337,
        -0.9975368976593018
      ],
      "type": "VEC3"
    },
    {
      "bufferView": 2,
      "byteOffset": 2804400,
      "componentType": 5126,
      "count": 2337,
      "max": [
        0.16692624986171722,
        0.2586318850517273,
        0.18768763542175293
      ],
      "min": [
        -0.33932268619537354,
        -0.29130518436431885,
        -0.17451788485050201
      ],
      "type": "VEC3"
    },
    {
      "bufferView": 2,
      "byteOffset": 2832444,
      "componentType": 5126,
      "count": 2337,
      "max": [
        1.1735131740570068,
        0.9760299921035767,
        1.0163207054138184
      ],
      "min": [
        -0.8900783658027649,
        -1.2481465339660645,
        -1.0325164794921875
      ],
      "type": "VEC3"
    },
    {
      "bufferView": 2,
      "byteOffset": 2860488,
      "componentType": 5126,
      "count": 2337,
      "max": [
        0.24229317903518677,
        0.25046026706695557,
        0.2381475567817688
      ],
      "min": [
        -0.32662439346313477,
        -0.33047428727149963,
        -0.18886320292949677
      ],
      "type": "VEC3"
    },
    {
      "bufferView": 2,
      "byteOffset": 2888532,
      "componentType": 5126,
      "count": 2337,
      "max": [
        1.2663633823394775,
        0.9703759551048279,
        1.2777421474456787
      ],
      "min": [
        -0.9121733903884888,
        -1.0681884288787842,
        -1.04634428024292
      ],
      "type": "VEC3"
    },
    {
      "bufferView": 2,
      "byteOffset": 2916576,
      "componentType": 5126,
      "count": 2337,
      "max": [
        0.25024062395095825,
        0.22145146131515503,
        0.24773818254470825
      ],
      "min": [
        -0.3104075789451599,
        -0.2795275151729584,
        -0.19853845238685608
      ],
      "type": "VEC3"
    },
    {
      "bufferView": 2,
      "byteOffset": 2944620,
      "componentType": 5126,
      "count": 2337,
      "max": [
        1.0416810512542725,
        0.9607861042022705,
        1.2806466817855835
      ],
      "min": [
        -0.9087691903114319,
        -1.153456449508667,
        -1.046818733215332
      ],
      "type": "VEC3"
    },
    {
      "bufferView": 2,
      "byteOffset": 2972664,
      "componentType": 5126,
      "count": 2337,
      "max": [
        0.15724492073059082,
        0.19688791036605835,
        0.20738375186920166
      ],
      "min": [
        -0.2922670841217041,
        -0.2653725743293762,
        -0.21020597219467163
      ],
      "type": "VEC3"
    },
    {
      "bufferView": 2,
      "byteOffset": 3000708,
      "componentType": 5126,
      "count": 2337,
      "max": [
        1.0226011276245117,
        0.9438197016716003,
        1.103309988975525
      ],
      "min": [
        -0.9150427579879761,
        -1.1221414804458618,
        -1.0455501079559326
      ],
      "type": "VEC3"
    },
    {
      "bufferView": 2,
      "byteOffset": 3028752,
      "componentType": 5126,
      "count": 2337,
      "max": [
        0.16633525490760803,
        0.19073209166526794,
        0.21121560037136078
      ],
      "min": [
        -0.2726250886917114,
        -0.25016599893569946,
        -0.21092408895492554
      ],
      "type": "VEC3"
    },
    {
      "bufferView": 2,
      "byteOffset": 3056796,
      "componentType": 5126,
      "count": 2337,
      "max": [
        1.036536693572998,
        0.8533169031143188,
        1.0812280178070068
      ],
      "min": [
        -0.8846736550331116,
        -1.2575324773788452,
        -1.0579767227172852
      ],
      "type": "VEC3"
    },
    {
      "bufferView": 2,
      "byteOffset": 3084840,
      "componentType": 5126,
      "count": 2337,
      "max": [
        0.185136616230011,
        0.211431086063385,
        0.22948190569877625
      ],
      "min": [
        -0.259202241897583,
        -0.22609680891036987,
        -0.1881236433982849
      ],
      "type": "VEC3"
    },
    {
      "bufferView": 2,
      "byteOffset": 3112884,
      "componentType": 5126,
      "count": 2337,
      "max": [
        1.1192615032196045,
        0.8714547157287598,
        0.9352444410324097
      ],
      "min": [
        -0.8669136762619019,
        -1.2021589279174805,
        -1.0612291097640991
      ],
      "type": "VEC3"
    },
    {
      "bufferView": 2,
      "byteOffset": 3140928,
      "componentType": 5126,
      "count": 2337,
      "max": [
        0.2154063582420349,
        0.23131585121154785,
        0.25961631536483765
      ],
      "min": [
        -0.24656057357788086,
        -0.21036940813064575,
        -0.1898481398820877
      ],
      "type": "VEC3"
    },
    {
      "bufferView": 2,
      "byteOffset": 3168972,
      "componentType": 5126,
      "count": 2337,
      "max": [
        1.2330435514450073,
        0.8774015307426453,
        0.9622911214828491
      ],
      "min": [
        -0.8514643907546997,
        -1.1719352006912231,
        -1.07724130153656
      ],
      "type": "VEC3"
    },
    {
      "bufferView": 2,
      "byteOffset": 3197016,
      "componentType": 5126,
      "count": 2337,
      "max": [
        0.23473286628723145,
        0.21103906631469727,
        0.27340632677078247
      ],
      "min": [
        -0.22752302885055542,
        -0.20584189891815186,
        -0.19187790155410767
      ],
      "type": "VEC3"
    },
    {
      "bufferView": 2,
      "byteOffset": 3225060,
      "componentType": 5126,
      "count": 2337,
      "max": [
        1.2176209688186646,
        0.8669748306274414,
        0.7770054340362549
      ],
      "min": [
        -0.8605903387069702,
        -1.265666127204895,
        -1.069878339767456
      ],
      "type": "VEC3"
    },
    {
      "bufferView": 2,
      "byteOffset": 3253104,
      "componentType": 5126,
      "count": 2337,
      "max": [
        0.22927844524383545,
        0.19202452898025513,
        0.3045242428779602
      ],
      "min": [
        -0.20138680934906006,
        -0.19333577156066895,
        -0.20804405212402344
      ],
      "type": "VEC3"
    },
    {
      "bufferView": 2,
      "byteOffset": 3281148,
      "componentType": 5126,
      "count": 2337,
      "max": [
        1.1187124252319336,
        0.7755558490753174,
        0.876144528388977
      ],
      "min": [
        -0.8668609261512756,
        -1.232049822807312,
        -1.0812599658966064
      ],
      "type": "VEC3"
    },
    {
      "bufferView": 2,
      "byteOffset": 3309192,
      "componentType": 5126,
      "count": 2337,
      "max": [
        0.22555088996887207,
        0.22050555050373077,
        0.31270766258239746
      ],
      "min": [
        -0.1753367781639099,
        -0.1816481351852417,
        -0.21797174215316772
      ],
      "type": "VEC3"
    },
    {
      "bufferView": 2,
      "byteOffset": 3337236,
      "componentType": 5126,
      "count": 2337,
      "max": [
        1.2677290439605713,
        1.4902290105819702,
        0.968694269657135
      ],
      "min": [
        -1.8960490226745605,
        -1.1207305192947388,
        -1.028415560722351
      ],
      "type": "VEC3"
    },
    {
      "bufferView": 2,
      "byteOffset": 3365280,
      "componentType": 5126,
      "count": 2337,
      "max": [
        0.22431400418281555,
        0.2609160542488098,
        0.31511324644088745
      ],
      "min": [
        -0.17179685831069946,
        -0.16390860080718994,
        -0.2473524808883667
      ],
      "type": "VEC3"
    },
    {
      "bufferView": 2,
      "byteOffset": 3393324,
      "componentType": 5126,
      "count": 2337,
      "max": [
        1.3991680145263672,
        1.3562949895858765,
        1.166481852531433
      ],
      "min": [
        -1.209765076637268,
        -1.5106713771820068,
        -1.0045642852783203
      ],
      "type": "VEC3"
    },
    {
      "bufferView": 2,
      "byteOffset": 3421368,
      "componentType": 5126,
      "count": 2337,
      "max": [
        0.19590681791305542,
        0.27362748980522156,
        0.29008108377456665
      ],
      "min": [
        -0.18230271339416504,
        -0.16549932956695557,
        -0.28913843631744385
      ],
      "type": "VEC3"
    },
    {
      "bufferView": 2,
      "byteOffset": 3449412,
      "componentType": 5126,
      "count": 2337,
      "max": [
        1.8086888790130615,
        1.2520887851715088,
        1.1758118867874146
      ],
      "min": [
        -1.4304025173187256,
        -1.2993638515472412,
        -1.0413703918457031
      ],
      "type": "VEC3"
    },
    {
      "bufferView": 2,
      "byteOffset": 3477456,
      "componentType": 5126,
      "count": 2337,
      "max": [
        0.17605352401733398,
        0.23173737525939941,
        0.27750492095947266
      ],
      "min": [
        -0.18375885486602783,
        -0.1665421426296234,
        -0.2844407558441162
      ],
      "type": "VEC3"
    },
    {
      "bufferView": 2,
      "byteOffset": 3505500,
      "componentType": 5126,
      "count": 2337,
      "max": [
        1.8774124383926392,
        1.404340386390686,
        1.0236610174179077
      ],
      "min": [
        -1.7243428230285645,
        -1.2699000835418701,
        -1.0196771621704102
      ],
      "type": "VEC3"
    },
    {
      "bufferView": 2,
      "byteOffset": 3533544,
      "componentType": 5126,
      "count": 2337,
      "max": [
        0.15737760066986084,
        0.22158211469650269,
        0.2484118938446045
      ],
      "min": [
        -0.166731595993042,
        -0.17929178476333618,
        -0.1745002269744873
      ],
      "type": "VEC3"
    },
    {
      "bufferView": 2,
      "byteOffset": 3561588,
      "componentType": 5126,
      "count": 2337,
      "max": [
        1.2857095003128052,
        0.8930383920669556,
        1.0551056861877441
      ],
      "min": [
        -1.0820984840393066,
        -1.6532124280929565,
        -1.0052939653396606
      ],
      "type": "VEC3"
    },
    {
      "bufferView": 2,
      "byteOffset": 3589632,
      "componentType": 5126,
      "count": 2337,
      "max": [
        0.1584324836730957,
        0.2136438488960266,
        0.25314319133758545
      ],
      "min": [
        -0.16798347234725952,
        -0.19431932270526886,
        -0.14957073330879211
      ],
      "type": "VEC3"
    },
    {
      "bufferView": 2,
      "byteOffset": 3617676,
      "componentType": 5126,
      "count": 2337,
      "max": [
        1.3442528247833252,
        1.130958080291748,
        0.9928621053695679
      ],
      "min": [
        -1.8343250751495361,
        -1.9651018381118774,
        -1.0180820226669312
      ],
      "type": "VEC3"
    },
    {
      "bufferView": 2,
      "byteOffset": 3645720,
      "componentType": 5126,
      "count": 2337,
      "max": [
        0.1667744666337967,
        0.17671358585357666,
        0.263232946395874
      ],
      "min": [
        -0.22285661101341248,
        -0.20034760236740112,
        -0.13606292009353638
      ],
      "type": "VEC3"
    },
    {
      "bufferView": 2,
      "byteOffset": 3673764,
      "componentType": 5126,
      "count": 2337,
      "max": [
        1.4513190984725952,
        1.36243736743927,
        1.090876579284668
      ],
      "min": [
        -1.9376089572906494,
        -1.6385619640350342,
        -1.050861120223999
      ],
      "type": "VEC3"
    },
    {
      "bufferView": 2,
      "byteOffset": 3701808,
      "componentType": 5126,
      "count": 2337,
      "max": [
        0.2736181914806366,
        0.25433844327926636,
        0.26210081577301025
      ],
      "min": [
        -0.3007267117500305,
        -0.2545723021030426,
        -0.15303240716457367
      ],
      "type": "VEC3"
    },
    {
      "bufferView": 2,
      "byteOffset": 3729852,
      "componentType": 5126,
      "count": 2337,
      "max": [
        1.3878111839294434,
        1.6335926055908203,
        1.2442039251327515
      ],
      "min": [
        -1.9808332920074463,
        -1.2212910652160645,
        -1.0493215322494507
      ],
      "type": "VEC3"
    },
    {
      "bufferView": 2,
      "byteOffset": 3757896,
      "componentType": 5126,
      "count": 2337,
      "max": [
        0.28521835803985596,
        0.28054583072662354,
        0.23381447792053223
      ],
      "min": [
        -0.3234584331512451,
        -0.264303594827652,
        -0.18588709831237793
      ],
      "type": "VEC3"
    },
    {
      "bufferView": 2,
      "byteOffset": 3785940,
      "componentType": 5126,
      "count": 2337,
      "max": [
        1.693953275680542,
        1.8006057739257813,
        1.2400776147842407
      ],
      "min": [
        -1.9745306968688965,
        -1.195792555809021,
        -1.0632331371307373
      ],
      "type": "VEC3"
    },
    {
      "bufferView": 2,
      "byteOffset": 3813984,
      "componentType": 5126,
      "count": 2337,
      "max": [
        0.20723575353622437,
        0.236247718334198,
        0.20110130310058594
      ],
      "min": [
        -0.27510982751846313,
        -0.21522358059883118,
        -0.18504753708839417
      ],
      "type": "VEC3"
    },
    {
      "bufferView": 2,
      "byteOffset": 3842028,
      "componentType": 5126,
      "count": 2337,
      "max": [
        1.3141100406646729,
        1.662184238433838,
        1.2059355974197388
      ],
      "min": [
        -1.9838809967041016,
        -1.5171207189559937,
        -1.0013160705566406
      ],
      "type": "VEC3"
    },
    {
      "bufferView": 2,
      "byteOffset": 3870072,
      "componentType": 5126,
      "count": 2337,
      "max": [
        0.2446305900812149,
        0.23029428720474243,
        0.168889582157135
      ],
      "min": [
        -0.23922011256217957,
        -0.2516041398048401,
        -0.19673120975494385
      ],
      "type": "VEC3"
    },
    {
      "bufferView": 2,
      "byteOffset": 3898116,
      "componentType": 5126,
      "count": 2337,
      "max": [
        1.3515437841415405,
        1.2659258842468262,
        1.0314115285873413
      ],
      "min": [
        -1.9148638248443604,
        -1.2679961919784546,
        -1.01634681224823
      ],
      "type": "VEC3"
    },
    {
      "bufferView": 2,
      "byteOffset": 3926160,
      "componentType": 5126,
      "count": 2337,
      "max": [
        0.21716104447841644,
        0.2381785809993744,
        0.17760944366455078
      ],
      "min": [
        -0.24295532703399658,
        -0.27562084794044495,
        -0.23071327805519104
      ],
      "type": "VEC3"
    },
    {
      "bufferView": 2,
      "byteOffset": 3954204,
      "componentType": 5126,
      "count": 2337,
      "max": [
        1.4481831789016724,
        1.4288254976272583,
        1.0296473503112793
      ],
      "min": [
        -1.8379122018814087,
        -1.6822905540466309,
        -1.0422861576080322
      ],
      "type": "VEC3"
    },
    {
      "bufferView": 0,
      "componentType": 5125,
      "count": 12288,
      "type": "SCALAR"
    },
    {
      "bufferView": 4,
      "componentType": 5126,
      "count": 88,
      "max": [
        2.9417083263397217
      ],
      "min": [
        0.041708335280418396
      ],
      "type": "SCALAR"
    },
    {
      "bufferView": 4,
      "byteOffset": 352,
      "componentType": 5126,
      "count": 6160,
      "max": [
        1.0
      ],
      "min": [
        0.0
      ],
      "type": "SCALAR"
    }
  ],
  "animations": [
    {
      "channels": [
        {
          "sampler": 0,
          "target": {
            "node": 5,
            "path": "weights"
          }
        }
      ],
      "name": "Scene",
      "samplers": [
        {
          "input": 146,
          "interpolation": "LINEAR",
          "output": 147
        }
      ]
    }
  ],
  "asset": {
    "extras": {
      "author": "yoba391010576 (https://sketchfab.com/yoba391010576)",
      "license": "CC-BY-4.0 (http://creativecommons.org/licenses/by/4.0/)",
      "source": "https://sketchfab.com/3d-models/animated-stylized-fire-c872b1d5a14f456c93d2b275b6c2642e",
      "title": "Animated stylized fire"
    },
    "generator": "Sketchfab-14.91.0",
    "version": "2.0"
  },
  "bufferViews": [
    {
      "buffer": 0,
      "byteLength": 49152,
      "name": "floatBufferViews",
      "target": 34963
    },
    {
      "buffer": 0,
      "byteLength": 37392,
      "byteOffset": 49152,
      "byteStride": 8,
      "name": "floatBufferViews",
      "target": 34962
    },
    {
      "buffer": 0,
      "byteLength": 3982248,
      "byteOffset": 86544,
      "byteStride": 12,
      "name": "floatBufferViews",
      "target": 34962
    },
    {
      "buffer": 0,
      "byteLength": 37392,
      "byteOffset": 4068792,
      "byteStride": 16,
      "name": "floatBufferViews",
      "target": 34962
    },
    {
      "buffer": 0,
      "byteLength": 24992,
      "byteOffset": 4106184,
      "name": "floatBufferViews"
    }
  ],
  "buffers": [
    {
      "byteLength": 4131176,
      "uri": "scene.bin"
    }
  ],
  "images": [
    {
      "uri": "textures/Material.004_emissive.png"
    }
  ],
  "materials": [
    {
      "doubleSided": true,
      "emissiveFactor": [
        1.0,
        1.0,
        1.0
      ],
      "emissiveTexture": {
        "index": 0
      },
      "name": "Material.004",
      "pbrMetallicRoughness": {
        "baseColorFactor": [
          0.8,
          0.8,
          0.8,
          1.0
        ],
        "metallicFactor": 0.0,
        "roughnessFactor": 0.7470177871865296
      }
    }
  ],
  "meshes": [
    {
      "name": "0",
      "primitives": [
        {
          "attributes": {
            "COLOR_0": 2,
            "NORMAL": 1,
            "POSITION": 0,
            "TEXCOORD_0": 3,
            "TEXCOORD_1": 4
          },
          "indices": 145,
          "material": 0,
          "mode": 4,
          "targets": [
            {
              "NORMAL": 6,
              "POSITION": 5
            },
            {
              "NORMAL": 8,
              "POSITION": 7
            },
            {
              "NORMAL": 10,
              "POSITION": 9
            },
            {
              "NORMAL": 12,
              "POSITION": 11
            },
            {
              "NORMAL": 14,
              "POSITION": 13
            },
            {
              "NORMAL": 16,
              "POSITION": 15
            },
            {
              "NORMAL": 18,
              "POSITION": 17
            },
            {
              "NORMAL": 20,
              "POSITION": 19
            },
            {
              "NORMAL": 22,
              "POSITION": 21
            },
            {
              "NORMAL": 24,
              "POSITION": 23
            },
            {
              "NORMAL": 26,
              "POSITION": 25
            },
            {
              "NORMAL": 28,
              "POSITION": 27
            },
            {
              "NORMAL": 30,
              "POSITION": 29
            },
            {
              "NORMAL": 32,
              "POSITION": 31
            },
            {
              "NORMAL": 34,
              "POSITION": 33
            },
            {
              "NORMAL": 36,
              "POSITION": 35
            },
            {
              "NORMAL": 38,
              "POSITION": 37
            },
            {
              "NORMAL": 40,
              "POSITION": 39
            },
            {
              "NORMAL": 42,
              "POSITION": 41
            },
            {
              "NORMAL": 44,
              "POSITION": 43
            },
            {
              "NORMAL": 46,
              "POSITION": 45
            },
            {
              "NORMAL": 48,
              "POSITION": 47
            },
            {
              "NORMAL": 50,
              "POSITION": 49
            },
            {
              "NORMAL": 52,
              "POSITION": 51
            },
            {
              "NORMAL": 54,
              "POSITION": 53
            },
            {
              "NORMAL": 56,
              "POSITION": 55
            },
            {
              "NORMAL": 58,
              "POSITION": 57
            },
            {
              "NORMAL": 60,
              "POSITION": 59
            },
            {
              "NORMAL": 62,
              "POSITION": 61
            },
            {
              "NORMAL": 64,
              "POSITION": 63
            },
            {
              "NORMAL": 66,
              "POSITION": 65
            },
            {
              "NORMAL": 68,
              "POSITION": 67
            },
            {
              "NORMAL": 70,
              "POSITION": 69
            },
            {
              "NORMAL": 72,
              "POSITION": 71
            },
            {
              "NORMAL": 74,
              "POSITION": 73
            },
            {
              "NORMAL": 76,
              "POSITION": 75
            },
            {
              "NORMAL": 78,
              "POSITION": 77
            },
            {
              "NORMAL": 80,
              "POSITION": 79
            },
            {
              "NORMAL": 82,
              "POSITION": 81
            },
            {
              "NORMAL": 84,
              "POSITION": 83
            },
            {
              "NORMAL": 86,
              "POSITION": 85
            },
            {
              "NORMAL": 88,
              "POSITION": 87
            },
            {
              "NORMAL": 90,
              "POSITION": 89
            },
            {
              "NORMAL": 92,
              "POSITION": 91
            },
            {
              "NORMAL": 94,
              "POSITION": 93
            },
            {
              "NORMAL": 96,
              "POSITION": 95
            },
            {
              "NORMAL": 98,
              "POSITION": 97
            },
            {
              "NORMAL": 100,
              "POSITION": 99
            },
            {
              "NORMAL": 102,
              "POSITION": 101
            },
            {
              "NORMAL": 104,
              "POSITION": 103
            },
            {
              "NORMAL": 106,
              "POSITION": 105
            },
            {
              "NORMAL": 108,
              "POSITION": 107
            },
            {
              "NORMAL": 110,
              "POSITION": 109
            },
            {
              "NORMAL": 112,
              "POSITION": 111
            },
            {
              "NORMAL": 114,
              "POSITION": 113
            },
            {
              "NORMAL": 116,
              "POSITION": 115
            },
            {
              "NORMAL": 118,
              "POSITION": 117
            },
            {
              "NORMAL": 120,
              "POSITION": 119
            },
            {
              "NORMAL": 122,
              "POSITION": 121
            },
            {
              "NORMAL": 124,
              "POSITION": 123
            },
            {
              "NORMAL": 126,
              "POSITION": 125
            },
            {
              "NORMAL": 128,
              "POSITION": 127
            },
            {
              "NORMAL": 130,
              "POSITION": 129
            },
            {
              "NORMAL": 132,
              "POSITION": 131
            },
            {
              "NORMAL": 134,
              "POSITION": 133
            },
            {
              "NORMAL": 136,
              "POSITION": 135
            },
            {
              "NORMAL": 138,
              "POSITION": 137
            },
            {
              "NORMAL": 140,
              "POSITION": 139
            },
            {
              "NORMAL": 142,
              "POSITION": 141
            },
            {
              "NORMAL": 144,
              "POSITION": 143
            }
          ]
        }
      ],
      "weights": [
        0.0,
        0.0,
        0.0,
        0.0,
        0.0,
        0.0,
        0.0,
        0.0,
        0.0,
        0.0,
        0.0,
        0.0,
        0.0,
        0.0,
        0.0,
        0.0,
        0.0,
        0.0,
        0.0,
        0.0,
        0.0,
        0.0,
        0.0,
        0.0,
        0.0,
        0.0,
        0.0,
        0.0,
        0.0,
        0.0,
        0.0,
        0.0,
        0.0,
        0.0,
        0.0,
        0.0,
        0.0,
        0.0,
        0.0,
        0.0,
        0.0,
        0.0,
        0.0,
        0.0,
        0.0,
        0.0,
        0.0,
        0.0,
        0.0,
        0.0,
        0.0,
        0.0,
        0.0,
        0.0,
        0.0,
        0.0,
        0.0,
        0.0,
        0.0,
        0.0,
        0.0,
        0.0,
        0.0,
        0.0,
        0.0,
        0.0,
        0.0,
        0.0,
        0.0,
        0.0
      ]
    }
  ],
  "nodes": [
    {
      "children": [
        1
      ],
      "matrix": [
        1.0,
        0.0,
        0.0,
        0.0,
        0.0,
        2.220446049250313e-16,
        -1.0,
        0.0,
        0.0,
        1.0,
        2.220446049250313e-16,
        0.0,
        0.0,
        0.0,
        0.0,
        1.0
      ],
      "name": "Sketchfab_model"
    },
    {
      "children": [
        2
      ],
      "matrix": [
        0.009999999776482582,
        0.0,
        0.0,
        0.0,
        0.0,
        0.0,
        0.009999999776482582,
        0.0,
        0.0,
        -0.009999999776482582,
        0.0,
        0.0,
        0.0,
        0.0,
        0.0,
        1.0
      ],
      "name": "fire.fbx"
    },
    {
      "children": [
        3
      ],
      "name": "Object_2"
    },
    {
      "children": [
        4
      ],
      "name": "RootNode"
    },
    {
      "children": [
        5
      ],
      "name": "Sphere",
      "rotation": [
        -0.7071068286895752,
        0.0,
        0.0,
        0.7071067094802856
      ],
      "scale": [
        6.102591514587402,
        6.102591514587402,
        7.747664451599121
      ],
      "translation": [
        2.695875406265259,
        9.055500984191895,
        0.2403073012828827
      ]
    },
    {
      "mesh": 0,
      "name": "0"
    }
  ],
  "samplers": [
    {
      "magFilter": 9729,
      "minFilter": 9987,
      "wrapS": 10497,
      "wrapT": 10497
    }
  ],
  "scene": 0,
  "scenes": [
    {
      "name": "Sketchfab_Scene",
      "nodes": [
        0
      ]
    }
  ],
  "textures": [
    {
      "sampler": 0,
      "source": 0
    }
  ]
}
